<svg xmlns="http://www.w3.org/2000/svg" width="102.647" height="88.147" viewBox="0 0 102.647 88.147"><defs><style>.a{fill:#f7dc6f;}.b,.g{fill:#47c796;}.c{fill:#35ab7e;}.d{fill:#9fecff;}.e{fill:#def8ff;}.e,.f,.g,.h,.i,.j{fill-rule:evenodd;}.f{fill:#ffecbd;}.h{fill:#ffd873;}.i,.k{fill:#edc256;}.j{fill:#80edc3;}</style></defs><path class="a" d="M129.574,104.364l.5,1.689a1.883,1.883,0,0,0,1.27,1.27l1.69.5a.259.259,0,0,1,0,.5l-1.69.5a1.883,1.883,0,0,0-1.27,1.27l-.5,1.69a.259.259,0,0,1-.5,0l-.5-1.69a1.883,1.883,0,0,0-1.27-1.27l-1.689-.5a.259.259,0,0,1,0-.5l1.689-.5a1.883,1.883,0,0,0,1.27-1.27l.5-1.689A.259.259,0,0,1,129.574,104.364Z" transform="translate(-30.573 -54.282)"/><path class="a" d="M193.259,55.153a1.488,1.488,0,1,0-1.488,1.489A1.488,1.488,0,0,0,193.259,55.153Z" transform="translate(-163.475 -53.665)"/><g transform="translate(0 12.187)"><rect class="b" width="74.374" height="62.874" transform="translate(5.219 13.086)"/><rect class="c" width="74.374" height="17.097" transform="translate(5.219 58.863)"/><rect class="c" width="32.388" height="28.07" transform="translate(39.838 37.95)"/><rect class="d" width="28.442" height="24.444" transform="translate(41.811 39.647)"/><path class="e" d="M325.632,170.272l10.812-10.812v-2.409l-10.812,10.812v2.409Zm0-4.818v-4.818l6.4-6.4h4.407v.41l-10.812,10.813Zm0-7.227v-2.409l1.586-1.587h2.409Zm-8.4,20.448,8.4-8.4v-2.409L314.82,178.676Zm8.4-22.857v2.409L308,175.857v-2.409l17.629-17.629Zm0,4.818v4.818L312.41,178.676H308v-.41Z" transform="translate(-266.192 -114.585)"/><rect class="b" width="74.374" height="2.852" transform="translate(5.219 73.108)"/><rect class="c" width="20.546" height="38.009" transform="translate(12.19 37.95)"/><rect class="d" width="17.099" height="36.313" transform="translate(13.914 39.647)"/><g transform="translate(13.914 43.402)"><path class="e" d="M262.247,179.441l17.1-17.1v-1.951l-17.1,17.1Z" transform="translate(-262.247 -160.392)"/><path class="e" d="M262.247,187.79l17.1-17.1v-3.9l-17.1,17.1Z" transform="translate(-262.247 -162.889)"/><path class="e" d="M262.247,195.437l17.1-17.1v-1.951l-17.1,17.1Z" transform="translate(-262.247 -166.635)"/></g><path class="f" d="M296.51,161.952h42.456l-5.034-10.5H301.544Z" transform="translate(-261.706 -113.499)"/><g transform="translate(39.507 48.453)"><path class="g" d="M304.224,168.675a2.352,2.352,0,1,0,4.7,0Z" transform="translate(-304.224 -168.675)"/><path class="g" d="M319.651,168.675a2.352,2.352,0,1,0,4.7,0Z" transform="translate(-310.245 -168.675)"/><path class="g" d="M335.078,168.675a2.352,2.352,0,1,0,4.7,0Z" transform="translate(-316.267 -168.675)"/></g><g transform="translate(34.804 48.453)"><path class="h" d="M301.213,168.675a2.352,2.352,0,1,1-4.7,0Z" transform="translate(-296.51 -168.675)"/><path class="h" d="M316.64,168.675a2.352,2.352,0,1,1-4.7,0Z" transform="translate(-302.531 -168.675)"/><path class="h" d="M332.067,168.675a2.352,2.352,0,1,1-4.7,0Z" transform="translate(-308.553 -168.675)"/><path class="h" d="M347.5,168.675a2.352,2.352,0,1,1-4.7,0Z" transform="translate(-314.574 -168.675)"/></g><path class="h" d="M244.644,103.084h74.374l5.218,20.42H239.426Z" transform="translate(-239.426 -94.622)"/><path class="i" d="M247.229,103.084H321.6l1.181,4.624H246.047Z" transform="translate(-242.01 -94.622)"/><path class="g" d="M350.718,168.675a2.352,2.352,0,1,0,4.7,0Z" transform="translate(-282.864 -120.222)"/><path class="h" d="M363.135,168.675a2.352,2.352,0,1,1-4.7,0Z" transform="translate(-285.875 -120.222)"/><path class="j" d="M304.224,161.952h33.05l-3.918-10.5H308.143Z" transform="translate(-264.717 -113.499)"/><path class="f" d="M312.149,161.952h23.386l-2.773-10.5h-17.84Z" transform="translate(-267.81 -113.499)"/><path class="j" d="M319.863,161.952h13.979l-1.658-10.5H321.521Z" transform="translate(-270.821 -113.499)"/><path class="f" d="M327.577,161.952h4.573l-.542-10.5h-3.489Z" transform="translate(-273.832 -113.499)"/><rect class="b" width="8.395" height="9.588" transform="translate(64.19 3.498)"/><rect class="k" width="12.247" height="3.498" transform="translate(62.264)"/><path class="i" d="M240.608,128.993h82.448l1.181,4.624H239.426Z" transform="translate(-239.426 -104.734)"/></g></svg>