<svg xmlns="http://www.w3.org/2000/svg" xmlns:xlink="http://www.w3.org/1999/xlink" width="88.987" height="94.794" viewBox="0 0 88.987 94.794"><defs><style>.a{fill:url(#a);}.b{fill:none;stroke:#f9e79f;stroke-miterlimit:10;stroke-width:2.083px;}.c{fill:#f9e79f;}.d{fill:#093856;opacity:0.2;}.e{fill:url(#b);}.f{fill:#ad5f1a;}.g{fill:#f7dc6f;}.h{fill:url(#c);}.i{opacity:0.5;fill:url(#d);}.j{fill:url(#e);}.k{fill:url(#g);}</style><linearGradient id="a" x1="0.39" y1="1.534" x2="0.39" y2="0.296" gradientUnits="objectBoundingBox"><stop offset="0" stop-color="#107864"/><stop offset="1" stop-color="#2ecc71"/></linearGradient><linearGradient id="b" x1="-0.003" y1="1.219" x2="-0.003" y2="-0.02" xlink:href="#a"/><linearGradient id="c" x1="-0.308" y1="1.756" x2="-0.308" y2="0.015" gradientUnits="objectBoundingBox"><stop offset="0" stop-color="#f39c12"/><stop offset="1" stop-color="#f1c40f"/></linearGradient><linearGradient id="d" x1="1.309" y1="0.634" x2="0.137" y2="0.363" gradientUnits="objectBoundingBox"><stop offset="0" stop-color="#fff"/><stop offset="1" stop-color="#fff" stop-opacity="0"/></linearGradient><linearGradient id="e" x1="0.424" y1="7.629" x2="0.424" y2="5.888" xlink:href="#c"/><linearGradient id="g" x1="-1.193" y1="4.378" x2="-1.193" y2="2.637" xlink:href="#c"/></defs><g transform="translate(22.123 11.294)"><rect class="a" width="49.334" height="29.162" rx="2.952" transform="translate(0 34.884) rotate(-45)"/><path class="b" d="M211.625,92.872,200.617,81.864a4.057,4.057,0,0,1-5.737,0L169.144,107.6a4.057,4.057,0,0,1,0,5.737l11.008,11.008a4.057,4.057,0,0,1,5.737,0l25.737-25.737A4.056,4.056,0,0,1,211.625,92.872Z" transform="translate(-162.632 -75.352)"/><circle class="c" cx="7.893" cy="7.893" r="7.893" transform="translate(19.859 19.859)"/><g transform="translate(15.882 15.882)"><path class="c" d="M186.977,129.26a1.754,1.754,0,1,0,0,2.48A1.753,1.753,0,0,0,186.977,129.26Z" transform="translate(-183.983 -108.513)"/><path class="c" d="M219.02,97.217a1.754,1.754,0,1,0,0,2.48A1.754,1.754,0,0,0,219.02,97.217Z" transform="translate(-195.793 -96.703)"/></g></g><g transform="translate(20.719 37.849)"><path class="d" d="M200.743,114.153a1.864,1.864,0,0,0-2.636,0l-19.973,19.973,7.114,7.113a1.864,1.864,0,0,0,2.636,0l19.972-19.973Z" transform="translate(-164.541 -113.607)"/><rect class="e" width="49.334" height="29.162" rx="2.952" transform="matrix(0.707, -0.707, 0.707, 0.707, 0, 36.324)"/><path class="b" d="M209.4,137.208,198.392,126.2a4.057,4.057,0,0,1-5.737,0l-25.737,25.737a4.056,4.056,0,0,1,0,5.737l11.008,11.008a4.056,4.056,0,0,1,5.737,0L209.4,142.944A4.056,4.056,0,0,1,209.4,137.208Z" transform="translate(-160.407 -118.248)"/><circle class="c" cx="7.893" cy="7.893" r="7.893" transform="translate(19.859 21.299)"/><g transform="translate(15.882 17.322)"><path class="c" d="M184.753,173.6a1.754,1.754,0,1,0,0,2.48A1.754,1.754,0,0,0,184.753,173.6Z" transform="translate(-181.758 -152.849)"/><path class="c" d="M216.8,141.553a1.754,1.754,0,1,0,0,2.48A1.754,1.754,0,0,0,216.8,141.553Z" transform="translate(-193.568 -141.039)"/></g></g><g transform="translate(0 51.938)"><circle class="f" cx="9.528" cy="9.528" r="9.528" transform="translate(0 0.795)"/><circle class="g" cx="9.528" cy="9.528" r="9.528" transform="translate(0.795)"/><circle class="h" cx="7.316" cy="7.316" r="7.316" transform="translate(3.007 2.212)"/><g transform="translate(5.935 6.069)"><path class="f" d="M140.175,149.447a2.216,2.216,0,0,1,.791,1.685,1.9,1.9,0,0,1-.359,1.027l.433.433-.786.786-.452-.452a1.9,1.9,0,0,1-1.514.2,3.25,3.25,0,0,1-1.322-.743l.826-.953a1.863,1.863,0,0,0,1.056.5.673.673,0,0,0,.556-.212.814.814,0,0,0,.186-.786,1.047,1.047,0,0,0-.314-.5,1.631,1.631,0,0,0-1.106-.417q-.542.019-1.613.049a4.79,4.79,0,0,1-1.366-.128,2.576,2.576,0,0,1-1.159-.678,2.421,2.421,0,0,1-.644-1.1,1.754,1.754,0,0,1,.2-1.44l-.4-.4.786-.786.4.4a1.831,1.831,0,0,1,.934-.3,2.18,2.18,0,0,1,1.538.575l-.732,1.056a1.587,1.587,0,0,0-.811-.379.622.622,0,0,0-.511.217.6.6,0,0,0-.162.614,1.229,1.229,0,0,0,.344.56,1.946,1.946,0,0,0,1.229.5,4.951,4.951,0,0,0,.8-.02,7.887,7.887,0,0,1,.811-.054,4.729,4.729,0,0,1,1.2.152A2.725,2.725,0,0,1,140.175,149.447Z" transform="translate(-133.193 -145.531)"/></g><g transform="translate(6.401 5.603)"><path class="g" d="M140.914,148.708a2.216,2.216,0,0,1,.791,1.685,1.894,1.894,0,0,1-.359,1.027l.433.433-.786.786-.452-.452a1.9,1.9,0,0,1-1.514.2,3.256,3.256,0,0,1-1.322-.742l.826-.953a1.863,1.863,0,0,0,1.056.5.672.672,0,0,0,.556-.211.815.815,0,0,0,.186-.787,1.047,1.047,0,0,0-.314-.5,1.629,1.629,0,0,0-1.106-.418q-.541.019-1.612.049a4.813,4.813,0,0,1-1.366-.128,2.589,2.589,0,0,1-1.16-.678,2.425,2.425,0,0,1-.643-1.1,1.754,1.754,0,0,1,.2-1.44l-.4-.4.786-.786.4.4a1.831,1.831,0,0,1,.934-.3,2.18,2.18,0,0,1,1.538.575l-.732,1.056a1.585,1.585,0,0,0-.811-.378.619.619,0,0,0-.511.216.6.6,0,0,0-.162.614,1.229,1.229,0,0,0,.344.561,1.944,1.944,0,0,0,1.229.5,4.881,4.881,0,0,0,.8-.02,7.888,7.888,0,0,1,.811-.054,4.731,4.731,0,0,1,1.2.152A2.729,2.729,0,0,1,140.914,148.708Z" transform="translate(-133.932 -144.792)"/></g><path class="f" d="M142.167,141.565a7.317,7.317,0,0,0-10.347,0c-.078.078-.147.164-.221.245a7.307,7.307,0,0,1,10.323,10.323c.081-.075.166-.143.245-.222A7.316,7.316,0,0,0,142.167,141.565Z" transform="translate(-126.671 -137.21)"/><path class="i" d="M127.844,138.711a9.525,9.525,0,0,0,4.095,15.89l5.415-18.267A9.523,9.523,0,0,0,127.844,138.711Z" transform="translate(-124.258 -135.92)"/></g><g transform="translate(71.295 10.585)"><circle class="f" cx="6.932" cy="6.932" r="6.932" transform="translate(0 0.578)"/><circle class="g" cx="6.932" cy="6.932" r="6.932" transform="translate(0.578)"/><path class="j" d="M249.254,74.535a5.323,5.323,0,1,0,0,7.527A5.322,5.322,0,0,0,249.254,74.535Z" transform="translate(-237.981 -71.367)"/><g transform="translate(4.318 4.415)"><path class="f" d="M248.622,80.269A1.613,1.613,0,0,1,249.2,81.5a1.375,1.375,0,0,1-.261.748l.314.314-.572.572-.328-.329a1.385,1.385,0,0,1-1.1.143,2.36,2.36,0,0,1-.962-.54l.6-.693a1.358,1.358,0,0,0,.768.361.49.49,0,0,0,.4-.154.591.591,0,0,0,.136-.571.759.759,0,0,0-.229-.365,1.184,1.184,0,0,0-.8-.3q-.393.014-1.173.035a3.482,3.482,0,0,1-.994-.093,1.875,1.875,0,0,1-.844-.493,1.763,1.763,0,0,1-.468-.8,1.279,1.279,0,0,1,.146-1.048l-.289-.29.572-.572.289.29a1.33,1.33,0,0,1,.679-.222,1.588,1.588,0,0,1,1.119.418l-.533.768a1.155,1.155,0,0,0-.59-.275.454.454,0,0,0-.372.157.437.437,0,0,0-.117.447.892.892,0,0,0,.25.408,1.414,1.414,0,0,0,.894.364,3.5,3.5,0,0,0,.579-.015,5.8,5.8,0,0,1,.59-.039,3.407,3.407,0,0,1,.876.111A1.981,1.981,0,0,1,248.622,80.269Z" transform="translate(-243.542 -77.42)"/></g><g transform="translate(4.657 4.076)"><path class="g" d="M249.159,79.732a1.61,1.61,0,0,1,.576,1.226,1.373,1.373,0,0,1-.261.747l.315.314-.572.572-.329-.329a1.382,1.382,0,0,1-1.1.143,2.378,2.378,0,0,1-.962-.54l.6-.693a1.356,1.356,0,0,0,.768.361.489.489,0,0,0,.4-.153.594.594,0,0,0,.136-.572.768.768,0,0,0-.229-.364,1.185,1.185,0,0,0-.8-.3q-.394.014-1.173.036a3.5,3.5,0,0,1-.993-.093,1.875,1.875,0,0,1-.844-.494,1.758,1.758,0,0,1-.468-.8,1.277,1.277,0,0,1,.146-1.048l-.29-.289.572-.572.29.289a1.335,1.335,0,0,1,.679-.222,1.584,1.584,0,0,1,1.118.419l-.532.768a1.152,1.152,0,0,0-.59-.275.45.45,0,0,0-.372.157.44.44,0,0,0-.118.448.9.9,0,0,0,.25.407,1.418,1.418,0,0,0,.894.365,3.564,3.564,0,0,0,.579-.015,5.86,5.86,0,0,1,.59-.04,3.468,3.468,0,0,1,.876.111A1.986,1.986,0,0,1,249.159,79.732Z" transform="translate(-244.079 -76.883)"/></g><path class="f" d="M250.07,74.535a5.322,5.322,0,0,0-7.527,0c-.057.057-.107.119-.161.178a5.316,5.316,0,0,1,7.51,7.511c.059-.054.121-.1.178-.162A5.322,5.322,0,0,0,250.07,74.535Z" transform="translate(-238.797 -71.367)"/><path class="i" d="M239.65,72.459a6.93,6.93,0,0,0,2.979,11.56l3.94-13.29A6.929,6.929,0,0,0,239.65,72.459Z" transform="translate(-237.042 -70.429)"/></g><g transform="translate(64.725 48.156)"><circle class="f" cx="11.645" cy="11.645" r="11.645" transform="translate(0 0.971)"/><circle class="g" cx="11.645" cy="11.645" r="11.645" transform="translate(0.971)"/><circle class="k" cx="8.942" cy="8.942" r="8.942" transform="translate(3.675 2.703)"/><g transform="translate(7.253 7.418)"><path class="f" d="M246.32,146.463a2.708,2.708,0,0,1,.967,2.06,2.309,2.309,0,0,1-.438,1.255l.529.529-.961.961-.553-.552a2.324,2.324,0,0,1-1.849.24,3.978,3.978,0,0,1-1.616-.907l1.009-1.165a2.277,2.277,0,0,0,1.291.606.819.819,0,0,0,.679-.258,1,1,0,0,0,.228-.96,1.286,1.286,0,0,0-.384-.613,1.994,1.994,0,0,0-1.351-.51q-.661.024-1.971.06a5.859,5.859,0,0,1-1.669-.156,3.153,3.153,0,0,1-1.418-.829,2.96,2.96,0,0,1-.787-1.339,2.146,2.146,0,0,1,.246-1.76l-.487-.487.961-.96.487.486a2.239,2.239,0,0,1,1.141-.373,2.664,2.664,0,0,1,1.879.7l-.895,1.291a1.935,1.935,0,0,0-.99-.463.759.759,0,0,0-.625.264.735.735,0,0,0-.2.751,1.507,1.507,0,0,0,.421.685,2.376,2.376,0,0,0,1.5.612,5.99,5.99,0,0,0,.973-.024,9.849,9.849,0,0,1,.991-.066,5.817,5.817,0,0,1,1.472.186A3.334,3.334,0,0,1,246.32,146.463Z" transform="translate(-237.786 -141.677)"/></g><g transform="translate(7.823 6.847)"><path class="g" d="M247.223,145.56a2.71,2.71,0,0,1,.967,2.06,2.309,2.309,0,0,1-.438,1.255l.529.529-.961.961-.553-.553a2.323,2.323,0,0,1-1.849.24,3.978,3.978,0,0,1-1.616-.907l1.009-1.165a2.277,2.277,0,0,0,1.291.606.819.819,0,0,0,.679-.258,1,1,0,0,0,.228-.96,1.286,1.286,0,0,0-.384-.613,1.994,1.994,0,0,0-1.351-.51q-.661.024-1.971.06a5.861,5.861,0,0,1-1.669-.156,3.153,3.153,0,0,1-1.418-.829,2.959,2.959,0,0,1-.787-1.339,2.144,2.144,0,0,1,.246-1.759l-.487-.487.961-.96.487.486a2.234,2.234,0,0,1,1.141-.373,2.664,2.664,0,0,1,1.879.7l-.895,1.291a1.935,1.935,0,0,0-.99-.463.759.759,0,0,0-.625.264.735.735,0,0,0-.2.751,1.5,1.5,0,0,0,.421.684,2.373,2.373,0,0,0,1.5.612,5.988,5.988,0,0,0,.973-.024,9.853,9.853,0,0,1,.991-.066,5.817,5.817,0,0,1,1.472.186A3.34,3.34,0,0,1,247.223,145.56Z" transform="translate(-238.689 -140.774)"/></g><path class="f" d="M248.755,136.829a8.942,8.942,0,0,0-12.646,0c-.1.1-.18.2-.271.3a8.93,8.93,0,0,1,12.617,12.617c.1-.091.2-.174.3-.27A8.943,8.943,0,0,0,248.755,136.829Z" transform="translate(-229.815 -131.507)"/><path class="i" d="M231.249,133.342a11.642,11.642,0,0,0,5,19.421l6.618-22.326A11.64,11.64,0,0,0,231.249,133.342Z" transform="translate(-226.867 -129.931)"/></g><path class="g" d="M129.574,104.364l.5,1.689a1.883,1.883,0,0,0,1.27,1.27l1.69.5a.259.259,0,0,1,0,.5l-1.69.5a1.883,1.883,0,0,0-1.27,1.27l-.5,1.69a.259.259,0,0,1-.5,0l-.5-1.69a1.883,1.883,0,0,0-1.27-1.27l-1.689-.5a.259.259,0,0,1,0-.5l1.689-.5a1.883,1.883,0,0,0,1.27-1.27l.5-1.689A.259.259,0,0,1,129.574,104.364Z" transform="translate(-124.397 -72.282)"/><path class="g" d="M193.259,55.153a1.488,1.488,0,1,0-1.488,1.489A1.488,1.488,0,0,0,193.259,55.153Z" transform="translate(-148.299 -53.665)"/></svg>