<svg xmlns="http://www.w3.org/2000/svg" xmlns:xlink="http://www.w3.org/1999/xlink" width="113.648" height="81.607" viewBox="0 0 113.648 81.607"><defs><style>.a{fill:url(#a);}.b{fill:#126fab;}.c{fill:#f1c40f;}.d,.m{fill:none;stroke:#e67e22;stroke-miterlimit:10;}.d{stroke-width:1.081px;}.e{fill:#fff;}.f,.j,.n{opacity:0.5;}.f{fill:url(#b);}.g,.l{fill:#093856;}.g{opacity:0.2;}.h{fill:url(#c);}.i{fill:#035344;}.j{fill:url(#d);}.k{fill:url(#e);}.m{stroke-width:0.729px;}.n{fill:url(#f);}.o{fill:#f7dc6f;}</style><linearGradient id="a" x1="0.509" y1="0.741" x2="0.509" y2="-0.316" gradientUnits="objectBoundingBox"><stop offset="0" stop-color="#0197f8"/><stop offset="1" stop-color="#79d3fe"/></linearGradient><linearGradient id="b" x1="1.778" y1="0.627" x2="0.175" y2="-0.014" gradientUnits="objectBoundingBox"><stop offset="0" stop-color="#fff"/><stop offset="1" stop-color="#fff" stop-opacity="0"/></linearGradient><linearGradient id="c" x1="0.941" y1="1.35" x2="0.941" y2="0.112" gradientUnits="objectBoundingBox"><stop offset="0" stop-color="#107864"/><stop offset="1" stop-color="#2ecc71"/></linearGradient><linearGradient id="d" x1="2.459" y1="0.834" x2="0.856" y2="0.193" xlink:href="#b"/><linearGradient id="e" x1="1.188" y1="-0.47" x2="1.188" y2="-1.709" gradientUnits="objectBoundingBox"><stop offset="0" stop-color="#014c7c"/><stop offset="1" stop-color="#0171ba"/></linearGradient><linearGradient id="f" x1="2.848" y1="-0.31" x2="1.245" y2="-0.951" xlink:href="#b"/></defs><g transform="translate(37.218 28.213)"><rect class="a" width="44.11" height="31.399" rx="7.208" transform="translate(0 31.19) rotate(-45)"/><rect class="b" width="44.11" height="6.891" transform="translate(14.748 45.938) rotate(-45)"/><rect class="c" width="11.775" height="8.58" rx="2.343" transform="translate(23.187 12.521) rotate(-45)"/><circle class="d" cx="2.465" cy="2.465" r="2.465" transform="translate(27.919 8.927)"/><line class="d" x1="1.291" y1="1.291" transform="translate(27.35 8.358)"/><line class="d" x2="1.291" y2="1.291" transform="translate(32.126 13.135)"/><line class="d" y1="2.42" x2="2.42" transform="translate(32.126 7.229)"/><line class="d" x1="2.42" y2="2.42" transform="translate(26.221 13.135)"/><path class="e" d="M529.447,424.648,524.9,429.2a.913.913,0,0,0,0,1.291h0a.913.913,0,0,0,1.291,0l4.55-4.55a.912.912,0,0,0,0-1.291h0A.912.912,0,0,0,529.447,424.648Z" transform="translate(-510.535 -389.714)"/><path class="f" d="M527.807,359.72a3.649,3.649,0,0,0-.92.669L500.86,386.416a3.651,3.651,0,0,0,0,5.163L517.9,408.618a3.651,3.651,0,0,0,5.164,0l4.744-4.744Z" transform="translate(-498.279 -357.807)"/><path class="g" d="M545.195,360a3.651,3.651,0,0,0-5.164,0l-13.6,13.6,8.562,8.562a3.651,3.651,0,0,0,5.163,0l13.6-13.6Z" transform="translate(-511.423 -357.416)"/></g><g transform="translate(40.195)"><rect class="h" width="44.11" height="31.399" rx="7.208" transform="translate(0 31.19) rotate(-45)"/><rect class="i" width="44.11" height="6.891" transform="matrix(0.707, -0.707, 0.707, 0.707, 14.748, 45.938)"/><rect class="c" width="11.775" height="8.58" rx="2.343" transform="matrix(0.707, -0.707, 0.707, 0.707, 23.187, 12.521)"/><circle class="d" cx="2.464" cy="2.464" r="2.464" transform="translate(27.919 8.927)"/><line class="d" x1="1.291" y1="1.291" transform="translate(27.35 8.358)"/><line class="d" x2="1.291" y2="1.291" transform="translate(32.126 13.134)"/><line class="d" y1="2.42" x2="2.42" transform="translate(32.126 7.229)"/><line class="d" x1="2.42" y2="2.42" transform="translate(26.221 13.134)"/><path class="e" d="M535.324,368.95l-4.55,4.55a.913.913,0,0,0,0,1.291h0a.913.913,0,0,0,1.291,0l4.55-4.55a.913.913,0,0,0,0-1.291h0A.913.913,0,0,0,535.324,368.95Z" transform="translate(-516.412 -334.016)"/><path class="j" d="M533.684,304.022a3.633,3.633,0,0,0-.919.668l-26.027,26.027a3.651,3.651,0,0,0,0,5.164l17.039,17.039a3.652,3.652,0,0,0,5.164,0l4.744-4.744Z" transform="translate(-504.156 -302.108)"/></g><g transform="translate(2.105 26.688)"><rect class="k" width="29.722" height="21.158" rx="4.857" transform="translate(0 21.017) rotate(-45)"/><rect class="l" width="29.722" height="4.644" transform="translate(9.938 30.955) rotate(-45)"/><path class="c" d="M1.578,0H6.356A1.578,1.578,0,0,1,7.934,1.578V4.2A1.579,1.579,0,0,1,6.356,5.782H1.579A1.579,1.579,0,0,1,0,4.2V1.578A1.578,1.578,0,0,1,1.578,0Z" transform="translate(15.624 8.437) rotate(-45)"/><circle class="m" cx="1.661" cy="1.661" r="1.661" transform="translate(18.813 6.015)"/><line class="m" x1="0.87" y1="0.87" transform="translate(18.429 5.632)"/><line class="m" x2="0.87" y2="0.87" transform="translate(21.648 8.85)"/><line class="m" y1="1.631" x2="1.631" transform="translate(21.648 4.871)"/><line class="m" x1="1.631" y2="1.631" transform="translate(17.668 8.85)"/><path class="e" d="M449.48,399.227l-3.066,3.066a.615.615,0,0,0,0,.87h0a.615.615,0,0,0,.87,0l3.066-3.066a.616.616,0,0,0,0-.87h0A.615.615,0,0,0,449.48,399.227Z" transform="translate(-436.737 -375.687)"/><path class="n" d="M448.376,355.477a2.454,2.454,0,0,0-.619.45l-17.538,17.537a2.461,2.461,0,0,0,0,3.479L441.7,388.426a2.461,2.461,0,0,0,3.479,0l3.2-3.2Z" transform="translate(-428.479 -354.187)"/></g><path class="o" d="M628.909,310.726l.4,1.355a1.509,1.509,0,0,0,1.019,1.019l1.355.4a.208.208,0,0,1,0,.4l-1.355.4a1.51,1.51,0,0,0-1.019,1.019l-.4,1.355a.208.208,0,0,1-.4,0l-.4-1.355a1.511,1.511,0,0,0-1.019-1.019l-1.356-.4a.208.208,0,0,1,0-.4l1.356-.4a1.511,1.511,0,0,0,1.019-1.019l.4-1.355A.208.208,0,0,1,628.909,310.726Z" transform="translate(-523.136 -305.343)"/><path class="o" d="M426.653,424.875l.4,1.356a1.511,1.511,0,0,0,1.019,1.019l1.355.4a.208.208,0,0,1,0,.4l-1.355.4a1.511,1.511,0,0,0-1.019,1.019l-.4,1.355a.208.208,0,0,1-.4,0l-.4-1.355a1.511,1.511,0,0,0-1.019-1.019l-1.356-.4a.208.208,0,0,1,0-.4l1.356-.4a1.511,1.511,0,0,0,1.019-1.019l.4-1.356A.208.208,0,0,1,426.653,424.875Z" transform="translate(-423.33 -361.671)"/><path class="o" d="M602.261,430.949l.4,1.355a1.511,1.511,0,0,0,1.019,1.019l1.356.4a.208.208,0,0,1,0,.4l-1.356.4a1.511,1.511,0,0,0-1.019,1.019l-.4,1.355a.208.208,0,0,1-.4,0l-.4-1.355a1.511,1.511,0,0,0-1.019-1.019l-1.355-.4a.208.208,0,0,1,0-.4l1.355-.4a1.511,1.511,0,0,0,1.019-1.019l.4-1.355A.208.208,0,0,1,602.261,430.949Z" transform="translate(-509.986 -364.669)"/><path class="o" d="M645.367,383.258a1.194,1.194,0,1,0-1.194,1.194A1.194,1.194,0,0,0,645.367,383.258Z" transform="translate(-531.718 -340.619)"/></svg>