<svg xmlns="http://www.w3.org/2000/svg" width="93.664" height="88.976" viewBox="0 0 93.664 88.976"><defs><style>.a{fill:#f7dc6f;}.b{fill:#22a96c;}.c{fill:#fff;}.d{fill:#37474f;}.e{fill:#263238;}.f{fill:#455a64;}.g{fill:#2ecb71;}.h,.j{fill:#27debf;}.h{opacity:0.6;}.i{fill:#f0f0f0;}.k{fill:#2dc470;}.l{fill:#b2ffd4;opacity:0.4;}.m{opacity:0.15;}.n{fill:#f1c40f;}.o{opacity:0.1;}.p{fill:#e67e22;}.q{opacity:0.3;}</style></defs><g transform="translate(0 0)"><path class="a" d="M628.324,310.7l.331,1.117a1.244,1.244,0,0,0,.84.84l1.117.331a.171.171,0,0,1,0,.328l-1.117.331a1.244,1.244,0,0,0-.84.84l-.331,1.117a.171.171,0,0,1-.328,0l-.331-1.117a1.245,1.245,0,0,0-.84-.84l-1.117-.331a.171.171,0,0,1,0-.328l1.117-.331a1.245,1.245,0,0,0,.84-.84L628,310.7A.171.171,0,0,1,628.324,310.7Z" transform="translate(-541.151 -287.308)"/><path class="a" d="M426.069,424.849l.331,1.117a1.245,1.245,0,0,0,.84.84l1.117.331a.171.171,0,0,1,0,.328l-1.117.331a1.245,1.245,0,0,0-.84.84l-.331,1.117a.171.171,0,0,1-.328,0l-.331-1.117a1.246,1.246,0,0,0-.84-.84l-1.117-.331a.171.171,0,0,1,0-.328l1.117-.331a1.246,1.246,0,0,0,.84-.84l.331-1.117A.171.171,0,0,1,426.069,424.849Z" transform="translate(-423.33 -353.804)"/><path class="a" d="M601.676,430.923l.332,1.117a1.245,1.245,0,0,0,.839.84l1.117.331a.171.171,0,0,1,0,.328l-1.117.331a1.245,1.245,0,0,0-.839.84l-.332,1.117a.171.171,0,0,1-.328,0l-.331-1.117a1.245,1.245,0,0,0-.84-.84l-1.117-.331a.171.171,0,0,1,0-.328l1.117-.331a1.245,1.245,0,0,0,.84-.84l.331-1.117A.171.171,0,0,1,601.676,430.923Z" transform="translate(-525.628 -357.342)"/><path class="a" d="M644.947,383.048a.984.984,0,1,0-.984.984A.984.984,0,0,0,644.947,383.048Z" transform="translate(-551.283 -328.952)"/><g transform="translate(5.913)"><g transform="translate(0)"><g transform="translate(0 43.651)"><path class="b" d="M41.75,245.442c-.123.067-2.388.71-3.227-.4s.553-2.836-.234-3.473-2.993,0-3.524-1.338,1.043-1.916.158-3.266c-.557-.85-1.925-1.326-2.046-2.112-.2-1.314,1.976-1.917,3.837-.677a3.864,3.864,0,0,0,3.578.589c.591-.083,1.864.1,1.823,2.174S41.75,245.442,41.75,245.442Z" transform="translate(-32.865 -233.5)"/><g transform="translate(1.222 0.822)"><path class="c" d="M46.318,245.464a.124.124,0,0,1-.122-.1c-.648-3.935-5.223-7.138-7.6-7.826a.123.123,0,0,1,.068-.237c2.432.7,7.111,3.985,7.777,8.023a.124.124,0,0,1-.1.142Z" transform="translate(-38.505 -237.293)"/></g><g transform="translate(3.517 4.75)"><path class="c" d="M49.224,256.374a.123.123,0,0,1-.063-.229,5.131,5.131,0,0,1,3.568-.592.123.123,0,1,1-.066.238,4.973,4.973,0,0,0-3.376.566A.124.124,0,0,1,49.224,256.374Z" transform="translate(-49.1 -255.425)"/></g></g><g transform="translate(8.003)"><path class="d" d="M77.929,214.075a2.012,2.012,0,0,0,.938,1.558l26.284,15.175a2.073,2.073,0,0,0,1.876,0l35.964-20.764a1.762,1.762,0,0,0,0-3.116l-26.284-15.175a2.073,2.073,0,0,0-1.876,0L78.867,212.517A2.011,2.011,0,0,0,77.929,214.075Z" transform="translate(-76.169 -156.97)"/><path class="e" d="M106.088,305.114v2.03a1.913,1.913,0,0,1-.938-.223L78.865,291.745a1.757,1.757,0,0,1-.1-3.055c-.42.3-.388.743.1,1.023l26.285,15.176A1.914,1.914,0,0,0,106.088,305.114Z" transform="translate(-76.167 -233.082)"/><path class="f" d="M70.685,87.588A2.012,2.012,0,0,1,69.805,86V54.63a2.073,2.073,0,0,1,.938-1.625l35.964-20.764a1.763,1.763,0,0,1,2.7,1.558V65.166a2.074,2.074,0,0,1-.938,1.625L72.5,87.554A2.011,2.011,0,0,1,70.685,87.588Z" transform="translate(-69.805 -32.007)"/><path class="e" d="M72.394,166.074a1.756,1.756,0,0,1-2.587-1.614V133.093a1.9,1.9,0,0,1,.275-.923l1.759,1.014v0a1.923,1.923,0,0,0-.275.923v31.367C71.566,166.031,71.928,166.28,72.394,166.074Z" transform="translate(-69.807 -110.471)"/><path class="d" d="M77.929,59.705V91.071c0,.6.42.841.938.542l35.964-20.764a2.074,2.074,0,0,0,.938-1.625V37.858c0-.6-.42-.841-.938-.542L78.867,58.08A2.073,2.073,0,0,0,77.929,59.705Z" transform="translate(-76.169 -36.066)"/><path class="f" d="M80.854,213.6l26.284,15.175a2.073,2.073,0,0,0,1.876,0l35.964-20.764a.572.572,0,0,0,0-1.083l-26.284-15.175a2.073,2.073,0,0,0-1.876,0L80.854,212.517A.572.572,0,0,0,80.854,213.6Z" transform="translate(-78.156 -156.97)"/><path class="g" d="M82.553,69.013,117.227,49c.311-.179.563-.034.563.325V76.477a1.244,1.244,0,0,1-.563.975L82.553,97.465c-.311.179-.563.034-.563-.325V69.988A1.245,1.245,0,0,1,82.553,69.013Z" transform="translate(-79.35 -45.258)"/><path class="h" d="M82.553,69.013,117.227,49c.311-.179.563-.034.563.325V76.477a1.244,1.244,0,0,1-.563.975L82.553,97.465c-.311.179-.563.034-.563-.325V69.988A1.245,1.245,0,0,1,82.553,69.013Z" transform="translate(-79.35 -45.258)"/><g transform="translate(17.319 21.81)"><path class="i" d="M158.229,132.909c.923-.533,1.672-.1,1.672.965a3.7,3.7,0,0,1-1.672,2.9c-.923.533-1.672.1-1.672-.965A3.7,3.7,0,0,1,158.229,132.909Z" transform="translate(-155.082 -132.681)"/><path class="i" d="M156.191,152.764c0-1.751-1.23-2.529-2.746-1.653l-.948.547a6.07,6.07,0,0,0-2.746,4.757v.471l6.441-3.716Z" transform="translate(-149.75 -146.835)"/></g><g transform="translate(14.961 28.471)"><path class="i" d="M150.918,163.561c-.061-.141-.217-.177-.393-.076l-11.248,6.49a.922.922,0,0,0-.416.721v1.323c0,.225.134.335.316.284l.03-.009a.494.494,0,0,0,.07-.034l11.248-6.49a.918.918,0,0,0,.416-.721v-1.323A.519.519,0,0,0,150.918,163.561Z" transform="translate(-138.862 -163.428)"/><g transform="translate(1.037 1.375)"><path class="j" d="M144.044,194.211c.218-.126.395-.024.395.228a.873.873,0,0,1-.395.684c-.218.126-.4.024-.4-.228A.873.873,0,0,1,144.044,194.211Z" transform="translate(-143.649 -188.875)"/><path class="j" d="M150.077,190.728c.218-.126.395-.024.395.228a.873.873,0,0,1-.395.684c-.218.126-.4.024-.4-.228A.872.872,0,0,1,150.077,190.728Z" transform="translate(-148.375 -186.146)"/><path class="j" d="M156.11,187.245c.218-.126.395-.024.395.228a.873.873,0,0,1-.395.684c-.218.126-.4.024-.4-.228A.872.872,0,0,1,156.11,187.245Z" transform="translate(-153.101 -183.418)"/><path class="j" d="M162.143,183.761c.218-.126.395-.024.395.228a.873.873,0,0,1-.395.684c-.218.126-.4.024-.4-.228A.873.873,0,0,1,162.143,183.761Z" transform="translate(-157.827 -180.689)"/><path class="j" d="M168.176,180.278c.218-.126.395-.024.395.228a.873.873,0,0,1-.395.684c-.218.126-.4.024-.4-.228A.873.873,0,0,1,168.176,180.278Z" transform="translate(-162.553 -177.96)"/><path class="j" d="M174.209,176.8c.218-.126.4-.024.4.228a.873.873,0,0,1-.4.684c-.218.126-.395.024-.395-.228A.874.874,0,0,1,174.209,176.8Z" transform="translate(-167.279 -175.232)"/><path class="j" d="M180.242,173.312c.218-.126.4-.024.4.228a.874.874,0,0,1-.4.684c-.218.126-.395.024-.395-.228A.874.874,0,0,1,180.242,173.312Z" transform="translate(-172.005 -172.504)"/><path class="j" d="M186.275,169.829c.218-.126.4-.024.4.228a.873.873,0,0,1-.4.684c-.218.126-.395.024-.395-.228A.873.873,0,0,1,186.275,169.829Z" transform="translate(-176.731 -169.775)"/></g></g><path class="d" d="M95.639,219.564l33.382-19.273a1.037,1.037,0,0,1,.938,0l1.707.986a.286.286,0,0,1,0,.541L98.28,221.088a1.037,1.037,0,0,1-.938,0l-1.7-.983A.286.286,0,0,1,95.639,219.564Z" transform="translate(-89.89 -163.746)"/><path class="e" d="M115.952,231.289l33.382-19.273a1.037,1.037,0,0,1,.938,0l10.5,6.064a.286.286,0,0,1,0,.542l-33.344,19.247a1.041,1.041,0,0,1-.939,0l-10.538-6.04A.285.285,0,0,1,115.952,231.289Z" transform="translate(-105.803 -172.931)"/><path class="f" d="M149.217,223.645l1.045-.6c.044-.026.042-.069-.006-.1l-1.209-.7a.184.184,0,0,0-.167,0l-1.045.6c-.044.026-.042.069.006.1l1.208.7A.185.185,0,0,0,149.217,223.645Zm-2.063-2.4-1.045.6c-.044.026-.042.069.006.1l1.209.7a.185.185,0,0,0,.167,0l1.045-.6c.044-.026.042-.069-.006-.1l-1.209-.7A.185.185,0,0,0,147.154,221.247Zm-3.377,1.95-1.769,1.021c-.044.026-.042.069.006.1l1.209.7a.184.184,0,0,0,.167,0l1.769-1.021c.044-.026.042-.069-.006-.1l-1.208-.7A.184.184,0,0,0,143.778,223.2Zm1.849-1.068-1.045.6c-.044.026-.042.069.006.1l1.209.7a.185.185,0,0,0,.167,0l1.045-.6c.044-.026.042-.069-.006-.1l-1.209-.7A.184.184,0,0,0,145.627,222.129Zm-4.1,2.367-1.045.6c-.044.026-.042.069.006.1l1.209.7a.185.185,0,0,0,.167,0l1.045-.6c.044-.026.042-.069-.006-.1l-1.209-.7A.185.185,0,0,0,141.526,224.5Zm-1.528.882-1.045.6c-.044.026-.042.069.006.1l1.209.7a.184.184,0,0,0,.167,0l1.045-.6c.044-.026.042-.069-.006-.1l-1.209-.7A.185.185,0,0,0,140,225.379Zm4.754,2.838,1.045-.6c.044-.026.042-.069-.006-.1l-1.208-.7a.184.184,0,0,0-.167,0l-1.045.6c-.044.026-.042.069.006.1l1.209.7A.185.185,0,0,0,144.753,228.216Zm-1.528.882,1.045-.6c.044-.026.042-.069-.006-.1l-1.208-.7a.185.185,0,0,0-.167,0l-1.045.6c-.044.026-.042.069.006.1l1.209.7A.185.185,0,0,0,143.225,229.1Zm-1.528.882,1.045-.6c.044-.026.042-.068-.006-.1l-1.209-.7a.184.184,0,0,0-.167,0l-1.045.6c-.044.026-.042.069.006.1l1.208.7A.185.185,0,0,0,141.7,229.98Zm-1.528.882,1.045-.6c.044-.026.042-.069-.006-.1l-1.208-.7a.184.184,0,0,0-.167,0l-1.045.6c-.044.026-.042.069.006.1l1.209.7A.184.184,0,0,0,140.17,230.862Zm7.52-6.335,1.045-.6c.044-.026.042-.069-.006-.1l-1.209-.7a.184.184,0,0,0-.167,0l-1.045.6c-.044.026-.042.069.006.1l1.209.7A.185.185,0,0,0,147.689,224.527Zm-1.409,2.807,2.331-1.346c.044-.026.042-.069-.006-.1l-2.935-1.695a.185.185,0,0,0-.167,0l-1.206.7c-.044.026-.042.069.006.1l1.554.9c.048.028.05.071.006.1l-.965.557c-.044.026-.042.069.006.1l1.209.7A.185.185,0,0,0,146.28,227.334Zm-7.809-1.074-1.045.6c-.044.026-.042.069.006.1l1.209.7a.185.185,0,0,0,.167,0l1.045-.6c.044-.026.042-.069-.006-.1l-1.208-.7A.185.185,0,0,0,138.471,226.261Zm-1.528.882-1.045.6c-.044.026-.042.069.006.1l1.208.7a.185.185,0,0,0,.167,0l1.045-.6c.045-.026.042-.069-.006-.1l-1.209-.7A.185.185,0,0,0,136.944,227.143Zm-7.634,9.89a.184.184,0,0,0,.167,0l1.045-.6c.044-.026.042-.069-.006-.1l-1.208-.7a.185.185,0,0,0-.167,0l-1.045.6c-.044.026-.042.069.006.1Zm-4.587-2.834-1.045.6c-.044.026-.042.069.006.1l1.209.7a.184.184,0,0,0,.167,0l1.045-.6c.044-.026.042-.069-.006-.1l-1.209-.7A.184.184,0,0,0,124.723,234.2Zm2.459,2.069a.185.185,0,0,0,.167,0l1.045-.6c.044-.026.042-.069-.006-.1l-1.208-.7a.185.185,0,0,0-.167,0l-1.045.6c-.044.026-.042.069.006.1Zm4.826,1.3,1.045-.6c.044-.026.042-.069-.006-.1l-1.209-.7a.185.185,0,0,0-.167,0l-1.045.6c-.044.026-.042.069.006.1l1.208.7A.184.184,0,0,0,132.007,237.569Zm-1.694.878a.184.184,0,0,0,.167,0l1.045-.6c.044-.026.042-.069-.006-.1l-1.209-.7a.184.184,0,0,0-.167,0l-1.045.6c-.044.026-.042.069.006.1Zm-4.062-5.13-1.045.6c-.044.026-.042.069.006.1l1.208.7a.185.185,0,0,0,.167,0l1.045-.6c.045-.026.042-.069-.006-.1l-1.208-.7A.184.184,0,0,0,126.25,233.317Zm7.638-4.41-1.045.6c-.044.026-.042.069.006.1l1.209.7a.185.185,0,0,0,.167,0l1.045-.6c.044-.026.042-.069-.006-.1l-1.209-.7A.185.185,0,0,0,133.888,228.907Zm-6.11,3.528-1.045.6c-.044.026-.042.069.006.1l1.208.7a.184.184,0,0,0,.167,0l1.045-.6c.044-.026.042-.069-.006-.1l-1.208-.7A.185.185,0,0,0,127.778,232.435Zm7.638-4.41-1.045.6c-.044.026-.042.069.006.1l1.208.7a.185.185,0,0,0,.167,0l1.045-.6c.044-.026.042-.069-.006-.1l-1.209-.7A.185.185,0,0,0,135.416,228.025Zm-3.055,1.764-1.045.6c-.045.026-.042.069.006.1l1.209.7a.185.185,0,0,0,.167,0l1.045-.6c.044-.026.042-.069-.006-.1l-1.209-.7A.184.184,0,0,0,132.361,229.789Zm-1.528.882-1.045.6c-.044.026-.042.069.006.1l1.209.7a.185.185,0,0,0,.167,0l1.045-.6c.044-.026.042-.069-.006-.1l-1.208-.7A.185.185,0,0,0,130.833,230.67Zm-1.528.882-1.045.6c-.044.026-.042.069.006.1l1.209.7a.185.185,0,0,0,.167,0l1.045-.6c.044-.026.042-.069-.006-.1l-1.209-.7A.184.184,0,0,0,129.306,231.553Zm7.809,1.073,1.045-.6c.044-.026.042-.069-.006-.1l-1.209-.7a.184.184,0,0,0-.167,0l-1.045.6c-.044.026-.042.069.006.1l1.208.7A.184.184,0,0,0,137.115,232.626ZM150.531,219.3l-1.045.6c-.044.026-.042.069.006.1l1.209.7a.185.185,0,0,0,.167,0l1.045-.6c.044-.026.042-.069-.006-.1l-1.209-.7A.185.185,0,0,0,150.531,219.3Zm-1.849,1.068-1.045.6c-.044.026-.042.069.006.1l1.209.7a.185.185,0,0,0,.167,0l1.045-.6c.044-.026.042-.069-.006-.1l-1.209-.7A.185.185,0,0,0,148.682,220.366Zm3.377-1.95-1.045.6c-.044.026-.042.069.006.1l1.209.7a.184.184,0,0,0,.167,0l1.045-.6c.044-.026.042-.069-.006-.1l-1.209-.7A.185.185,0,0,0,152.059,218.416Zm-7.907,8.154,1.045-.6c.044-.026.042-.069-.006-.1l-1.208-.7a.185.185,0,0,0-.167,0l-1.045.6c-.044.026-.042.069.006.1l1.209.7A.185.185,0,0,0,144.152,226.57Zm9.6-9.032a.184.184,0,0,0-.167,0l-1.045.6c-.044.026-.042.069.006.1l1.209.7a.185.185,0,0,0,.167,0l1.045-.6c.044-.026.042-.069-.006-.1Zm-15.111,14.207,1.045-.6c.044-.026.042-.069-.006-.1l-1.208-.7a.185.185,0,0,0-.167,0l-1.045.6c-.044.026-.042.069.006.1l1.208.7A.184.184,0,0,0,138.642,231.744Zm18.733-10.816,1.045-.6c.044-.026.042-.069-.006-.1l-1.209-.7a.184.184,0,0,0-.167,0l-1.045.6c-.044.026-.042.069.006.1l1.208.7A.185.185,0,0,0,157.375,220.929Zm-3.254-.115,1.045-.6c.044-.026.042-.069-.006-.1l-1.208-.7a.185.185,0,0,0-.167,0l-1.045.6c-.044.026-.042.069.006.1l1.209.7A.185.185,0,0,0,154.121,220.814Zm1.358-2.279a.185.185,0,0,0-.167,0l-1.045.6c-.044.026-.042.069.006.1l1.209.7a.184.184,0,0,0,.167,0l1.045-.6c.044-.026.042-.069-.006-.1Zm.322-.186,2.935,1.695a.185.185,0,0,0,.167,0l1.045-.6c.044-.026.042-.069-.006-.1l-2.935-1.695a.185.185,0,0,0-.167,0l-1.045.6C155.751,218.278,155.753,218.321,155.8,218.349Zm-3.544,1.946-1.045.6c-.044.026-.042.069.006.1l1.209.7a.184.184,0,0,0,.167,0l1.045-.6c.044-.026.042-.069-.006-.1l-1.208-.7A.184.184,0,0,0,152.258,220.295Zm-11.5,6.638-1.045.6c-.044.026-.042.069.006.1l1.208.7a.185.185,0,0,0,.167,0l1.045-.6c.045-.026.042-.069-.006-.1l-1.209-.7A.185.185,0,0,0,140.761,226.933Zm14.921-5.125a.185.185,0,0,0,.167,0l1.045-.6c.044-.026.042-.069-.006-.1l-1.209-.7a.184.184,0,0,0-.167,0l-1.045.6c-.044.026-.042.069.006.1Zm-13.393,4.244-1.045.6c-.044.026-.042.069.006.1l1.208.7a.185.185,0,0,0,.167,0l1.045-.6c.044-.026.042-.069-.006-.1l-1.208-.7A.184.184,0,0,0,142.288,226.051Zm-11.451,10.1a.184.184,0,0,0,.167,0l1.045-.6c.044-.026.042-.069-.006-.1l-1.209-.7a.185.185,0,0,0-.167,0l-1.045.6c-.044.026-.042.069.006.1Zm-2.3-2.162-1.045.6c-.044.026-.042.069.006.1l1.209.7a.185.185,0,0,0,.167,0l1.045-.6c.044-.026.042-.069-.006-.1l-1.208-.7A.185.185,0,0,0,128.54,233.988Zm3.992,1.284,1.045-.6c.044-.026.042-.069-.006-.1l-1.209-.7a.184.184,0,0,0-.167,0l-1.045.6c-.044.026-.042.069.006.1l1.208.7A.184.184,0,0,0,132.532,235.272Zm1.528-.882,1.045-.6c.044-.026.042-.069-.006-.1l-1.209-.7a.184.184,0,0,0-.167,0l-1.045.6c-.044.026-.042.069.006.1l1.209.7A.185.185,0,0,0,134.059,234.39Zm1.528-.882,1.045-.6c.044-.026.042-.069-.006-.1l-1.209-.7a.185.185,0,0,0-.167,0l-1.045.6c-.044.026-.042.069.006.1l1.209.7A.184.184,0,0,0,135.587,233.508Zm-5.52-.4-1.045.6c-.044.026-.042.069.006.1l1.209.7a.184.184,0,0,0,.167,0l1.045-.6c.044-.026.042-.069-.006-.1l-1.209-.7A.185.185,0,0,0,130.067,233.106Zm1.528-.882-1.045.6c-.044.026-.042.069.006.1l1.209.7a.185.185,0,0,0,.167,0l1.045-.6c.044-.026.042-.069-.006-.1l-1.209-.7A.184.184,0,0,0,131.595,232.224Zm6.11-3.528-1.045.6c-.044.026-.042.069.006.1l1.208.7a.184.184,0,0,0,.167,0l1.045-.6c.044-.026.042-.069-.006-.1l-1.209-.7A.184.184,0,0,0,137.705,228.7Zm-1.528.882-1.045.6c-.044.026-.042.069.006.1l1.208.7a.184.184,0,0,0,.167,0l1.045-.6c.044-.026.042-.069-.006-.1l-1.209-.7A.184.184,0,0,0,136.178,229.579Zm3.055-1.764-1.045.6c-.044.026-.042.069.006.1l1.209.7a.184.184,0,0,0,.167,0l1.045-.6c.044-.026.042-.069-.006-.1l-1.208-.7A.185.185,0,0,0,139.233,227.815Zm-6.11,3.528-1.045.6c-.044.026-.042.069.006.1l1.209.7a.184.184,0,0,0,.167,0l1.045-.6c.044-.026.042-.069-.006-.1l-1.208-.7A.184.184,0,0,0,133.123,231.342Zm1.528-.882-1.045.6c-.044.026-.042.069.006.1l1.209.7a.184.184,0,0,0,.167,0l1.045-.6c.044-.026.042-.069-.006-.1l-1.209-.7A.185.185,0,0,0,134.65,230.461Zm-1.115,6.226,1.045-.6c.044-.026.042-.069-.006-.1l-1.209-.7a.184.184,0,0,0-.167,0l-1.045.6c-.044.026-.042.069.006.1l1.209.7A.185.185,0,0,0,133.535,236.687Zm-8.964-.905-1.209-.7a.184.184,0,0,0-.167,0l-1.045.6c-.045.026-.042.069.006.1l1.208.7a.185.185,0,0,0,.167,0l1.045-.6C124.621,235.852,124.618,235.809,124.571,235.781Zm2.289.672-1.209-.7a.185.185,0,0,0-.167,0l-1.608.929c-.044.026-.042.069.006.1l1.208.7a.184.184,0,0,0,.167,0l1.608-.928C126.91,236.524,126.908,236.481,126.86,236.453Zm-4.144-2.021-1.208-.7a.184.184,0,0,0-.167,0l-1.286.743c-.044.026-.042.069.006.1l1.208.7a.185.185,0,0,0,.167,0l1.286-.743C122.767,234.5,122.764,234.46,122.716,234.432Zm.986-.569a.184.184,0,0,0,.167,0l1.045-.6c.044-.026.042-.069-.006-.1l-1.209-.7a.185.185,0,0,0-.167,0l-1.045.6c-.044.026-.042.069.006.1Zm5.286,3.355-1.208-.7a.185.185,0,0,0-.167,0l-2.01,1.161c-.044.026-.042.069.006.1l1.209.7a.184.184,0,0,0,.167,0l2.01-1.161C129.039,237.289,129.036,237.246,128.988,237.218Zm1,1.414-1.209-.7a.184.184,0,0,0-.167,0l-1.286.743c-.045.026-.042.069.006.1l1.209.7a.184.184,0,0,0,.167,0l1.286-.743C130.042,238.7,130.039,238.66,129.991,238.633Zm5.069-11.327a.185.185,0,0,0,.167,0l1.045-.6c.044-.026.042-.068-.006-.1l-1.209-.7a.185.185,0,0,0-.167,0l-1.045.6c-.044.026-.042.069.006.1Zm-3.055,1.764a.184.184,0,0,0,.167,0l1.045-.6c.044-.026.042-.068-.006-.1l-1.209-.7a.184.184,0,0,0-.167,0l-1.045.6c-.044.026-.042.069.006.1Zm-6.775,3.912a.185.185,0,0,0,.167,0l1.045-.6c.044-.026.042-.069-.006-.1l-1.209-.7a.185.185,0,0,0-.167,0l-1.045.6c-.044.026-.042.069.006.1Zm8.3-4.794a.184.184,0,0,0,.167,0l1.045-.6c.044-.026.042-.069-.006-.1l-1.208-.7a.185.185,0,0,0-.167,0l-1.045.6c-.044.026-.042.069.006.1Zm-3.055,1.764a.185.185,0,0,0,.167,0l1.045-.6c.044-.026.042-.069-.006-.1l-1.209-.7a.184.184,0,0,0-.167,0l-1.045.6c-.044.026-.042.069.006.1Zm.353,8.795a.184.184,0,0,0-.167,0l-1.608.928c-.044.026-.042.069.006.1l1.208.7a.184.184,0,0,0,.167,0l1.608-.928c.044-.026.042-.069-.006-.1Zm-2.546-7.529a.184.184,0,0,0,.167,0l1.045-.6c.044-.026.042-.069-.006-.1l-1.208-.7a.185.185,0,0,0-.167,0l-1.045.6c-.045.026-.042.069.006.1Zm-1.528.882a.185.185,0,0,0,.167,0l1.045-.6c.044-.026.042-.069-.006-.1l-1.209-.7a.185.185,0,0,0-.167,0l-1.045.6c-.044.026-.042.069.006.1Zm32.374-9.692a.185.185,0,0,0-.167,0l-2.573,1.486c-.044.026-.042.069.006.1l1.209.7a.185.185,0,0,0,.167,0l2.573-1.486c.044-.026.042-.069-.006-.1Zm-3.377,1.95a.185.185,0,0,0-.167,0l-1.045.6c-.044.026-.042.069.006.1l1.208.7a.185.185,0,0,0,.167,0l1.045-.6c.044-.026.042-.069-.006-.1ZM135.063,235.8l1.045-.6c.044-.026.042-.069-.006-.1l-1.209-.7a.184.184,0,0,0-.167,0l-1.045.6c-.044.026-.042.069.006.1l1.209.7A.185.185,0,0,0,135.063,235.8ZM152.7,226.12a.185.185,0,0,0-.167,0l-1.045.6c-.044.026-.042.069.006.1l1.209.7a.184.184,0,0,0,.167,0l1.045-.6c.044-.026.042-.069-.006-.1Zm7.96-4.6a.185.185,0,0,0-.167,0l-1.045.6c-.044.026-.042.069.006.1l1.209.7a.185.185,0,0,0,.167,0l1.045-.6c.044-.026.042-.069-.006-.1Zm2.736-.184-2.935-1.695a.185.185,0,0,0-.167,0l-1.045.6c-.044.026-.042.069.006.1l2.935,1.695a.185.185,0,0,0,.167,0l1.045-.6C163.446,221.411,163.443,221.368,163.4,221.341Zm-16.4,8.075a.184.184,0,0,0-.167,0l-1.286.743c-.044.026-.042.069.006.1l1.209.7a.184.184,0,0,0,.167,0l1.286-.743c.044-.026.042-.069-.006-.1Zm3.859-2.228a.184.184,0,0,0-.167,0l-1.608.928c-.044.026-.042.069.006.1l1.209.7a.185.185,0,0,0,.167,0l1.608-.928c.044-.026.042-.069-.006-.1Zm-7.4,4.271a.185.185,0,0,0-.167,0l-8.6,4.967c-.044.026-.042.069.006.1l1.209.7a.185.185,0,0,0,.167,0l8.6-4.967c.044-.026.042-.069-.006-.1Zm-9.085,5.245a.185.185,0,0,0-.167,0l-1.286.743c-.044.026-.042.069.006.1l1.209.7a.184.184,0,0,0,.167,0l1.287-.743c.044-.026.042-.069-.006-.1Zm10.854-6.267a.185.185,0,0,0-.167,0l-1.286.743c-.044.026-.042.069.006.1l1.209.7a.184.184,0,0,0,.167,0l1.286-.743c.044-.026.042-.069-.006-.1ZM132.6,237.725a.185.185,0,0,0-.167,0l-1.286.743c-.044.026-.042.069.006.1l1.208.7a.185.185,0,0,0,.167,0l1.286-.743c.044-.026.042-.069-.006-.1Zm16.16-9.33a.183.183,0,0,0-.167,0l-1.287.743c-.044.026-.042.069.006.1l1.209.7a.184.184,0,0,0,.167,0l1.286-.743c.044-.026.042-.069-.006-.1Zm5.467-3.157a.185.185,0,0,0-.167,0l-1.045.6c-.044.026-.042.069.006.1l1.208.7a.185.185,0,0,0,.167,0l1.045-.6c.044-.026.042-.069-.006-.1Zm3.347-2.431,1.045-.6c.044-.026.042-.069-.006-.1l-1.209-.7a.184.184,0,0,0-.167,0l-1.045.6c-.044.026-.042.069.006.1l1.209.7A.184.184,0,0,0,157.574,222.807Zm-6.83-.044,1.045-.6c.044-.026.042-.069-.006-.1l-1.209-.7a.184.184,0,0,0-.167,0l-1.045.6c-.045.026-.042.069.006.1l1.208.7A.185.185,0,0,0,150.744,222.763Zm-3.461,5.986,3.055-1.764c.044-.026.042-.069-.006-.1l-1.208-.7a.185.185,0,0,0-.167,0l-3.055,1.764c-.044.026-.042.069.006.1l1.208.7A.184.184,0,0,0,147.283,228.749Zm8.6-5.063a.184.184,0,0,0,.167,0l1.045-.6c.044-.026.042-.069-.006-.1l-1.209-.7a.185.185,0,0,0-.167,0l-1.045.6c-.044.026-.042.069.006.1Zm-1.56-.994,1.045-.6c.044-.026.042-.069-.006-.1l-1.209-.7a.184.184,0,0,0-.167,0l-1.045.6c-.044.026-.042.069.006.1l1.209.7A.185.185,0,0,0,154.32,222.692Zm-8.565,6.939,1.045-.6c.044-.026.042-.069-.006-.1l-1.209-.7a.184.184,0,0,0-.167,0l-1.045.6c-.044.026-.042.069.006.1l1.208.7A.185.185,0,0,0,145.756,229.631Zm6.747-4a.185.185,0,0,0,.167,0l1.045-.6c.044-.026.042-.069-.006-.1l-1.208-.7a.185.185,0,0,0-.167,0l-1.045.6c-.044.026-.042.069.006.1Zm-14.385,8.405,1.045-.6c.044-.026.042-.069-.006-.1l-1.209-.7a.185.185,0,0,0-.167,0l-1.045.6c-.044.026-.042.069.006.1l1.209.7A.185.185,0,0,0,138.118,234.041Zm1.528-.882,1.045-.6c.044-.026.042-.069-.006-.1l-1.209-.7a.184.184,0,0,0-.167,0l-1.045.6c-.044.026-.042.069.006.1l1.209.7A.184.184,0,0,0,139.645,233.159Zm-3.055,1.764,1.045-.6c.044-.026.042-.069-.006-.1l-1.208-.7a.184.184,0,0,0-.167,0l-1.045.6c-.044.026-.042.069.006.1l1.208.7A.186.186,0,0,0,136.59,234.923Zm6.11-3.528,1.045-.6c.044-.026.042-.069-.006-.1l-1.208-.7a.185.185,0,0,0-.167,0l-1.045.6c-.044.026-.042.069.006.1l1.208.7A.185.185,0,0,0,142.7,231.395Zm-1.528.882,1.045-.6c.044-.026.042-.069-.006-.1l-1.209-.7a.185.185,0,0,0-.167,0l-1.045.6c-.044.026-.042.069.006.1l1.209.7A.184.184,0,0,0,141.173,232.277Zm3.055-1.764,1.045-.6c.044-.026.042-.069-.006-.1l-1.209-.7a.185.185,0,0,0-.167,0l-1.045.6c-.044.026-.042.069.006.1l1.209.7A.185.185,0,0,0,144.228,230.513Zm6.989-13.047a.185.185,0,0,0,.167,0l1.045-.6c.044-.026.042-.069-.006-.1l-.322-.186a.185.185,0,0,0-.167,0l-1.045.6c-.044.026-.042.069.006.1Zm-7.516,4.851a.184.184,0,0,0,.167,0l1.045-.6c.044-.026.042-.069-.006-.1l-1.209-.7a.184.184,0,0,0-.167,0l-1.045.6c-.044.026-.042.069.006.1Zm3.055-1.764a.185.185,0,0,0,.167,0l1.045-.6c.044-.026.042-.069-.006-.1l-1.209-.7a.184.184,0,0,0-.167,0l-1.045.6c-.044.026-.042.069.006.1Zm-4.921,2.841a.184.184,0,0,0,.167,0l1.045-.6c.044-.026.042-.069-.006-.1l-1.208-.7a.185.185,0,0,0-.167,0l-1.045.6c-.044.026-.042.069.006.1Zm3.393-1.959a.185.185,0,0,0,.167,0l1.045-.6c.044-.026.042-.069-.006-.1l-1.209-.7a.185.185,0,0,0-.167,0l-1.045.6c-.044.026-.042.069.006.1Zm-6.448,3.723a.184.184,0,0,0,.167,0l1.045-.6c.044-.026.042-.069-.006-.1l-1.209-.7a.184.184,0,0,0-.167,0l-1.045.6c-.044.026-.042.069.006.1Zm1.528-.882a.185.185,0,0,0,.167,0l1.045-.6c.044-.026.042-.069-.006-.1l-1.208-.7a.185.185,0,0,0-.167,0l-1.045.6c-.045.026-.042.069.006.1Zm7.854-5.046a.185.185,0,0,0,.167,0l1.045-.6c.044-.026.042-.069-.006-.1l-.322-.186a.184.184,0,0,0-.167,0l-1.045.6c-.044.026-.042.069.006.1Zm4.583-2.646a.184.184,0,0,0,.167,0l1.045-.6c.044-.026.042-.069-.006-.1l-.322-.186a.184.184,0,0,0-.167,0l-1.045.6c-.044.026-.042.069.006.1Zm2.539,1.466a.185.185,0,0,0,.167,0l1.045-.6c.044-.026.042-.069-.006-.1l-1.209-.7a.184.184,0,0,0-.167,0l-1.045.6c-.044.026-.042.069.006.1Zm3.819,3.876,1.045-.6c.044-.025.042-.068-.006-.1l-1.209-.7a.185.185,0,0,0-.167,0l-1.045.6c-.044.026-.042.069.006.1l1.208.7A.184.184,0,0,0,159.1,221.925Zm-9.413-3.578a.183.183,0,0,0,.167,0l1.045-.6c.044-.026.042-.069-.006-.1l-.322-.186a.184.184,0,0,0-.167,0l-1.045.6c-.044.026-.042.069.006.1Zm-12.437,7.692a.184.184,0,0,0,.167,0l1.045-.6c.044-.026.042-.069-.006-.1l-1.209-.7a.185.185,0,0,0-.167,0l-1.045.6c-.044.026-.042.069.006.1Z" transform="translate(-109.144 -175.889)"/><path class="e" d="M229.981,283.807l10.314-5.955a1.245,1.245,0,0,1,1.126,0l5.915,3.415a.343.343,0,0,1,0,.65l-10.314,5.955a1.245,1.245,0,0,1-1.126,0l-5.914-3.415A.343.343,0,0,1,229.981,283.807Z" transform="translate(-195.098 -224.486)"/></g><g transform="translate(42.668 29.268)"><path class="j" d="M249,168.526a0,0,0,0,1,0,0l-.013-.009-1.761-1.014c-.1-.046-.251,0-.431.134a6.361,6.361,0,0,1-5.641,1.07,4.275,4.275,0,0,1-.33-.342c-.011-.013-.022-.026-.032-.037h0a.692.692,0,0,0-.182-.149l-.03-.017-1.763-1.012c-.2-.1-.383,0-.5.3-1.7,4.231-5.332,8.518-7.751,9.591a1.369,1.369,0,0,0-.477.355,1.015,1.015,0,0,0-.269.693l.349,9.5c0,2.745,1.159,5.643,3.523,7.054l1.824,1.053.032.017a6.417,6.417,0,0,0,3.232.821c.253,0,.511-.011.778-.037a2.61,2.61,0,0,0,1.378-.689c5.288-5.462,7.86-12.853,7.86-16.943l.349-9.937C249.151,168.71,249.1,168.578,249,168.526Z" transform="translate(-229.818 -167.111)"/><path class="k" d="M255.509,172.585l-.349,9.937c0,4.09-2.572,11.482-7.86,16.943a2.61,2.61,0,0,1-1.378.689c-.266.026-.524.037-.778.037a6.416,6.416,0,0,1-3.232-.821l-.032-.017-.063-.039c-2.364-1.41-3.523-4.309-3.523-7.054l-.349-9.5a1.015,1.015,0,0,1,.269-.693,1.369,1.369,0,0,1,.477-.355c2.42-1.072,6.049-5.36,7.751-9.591.121-.3.305-.4.507-.3h0l.03.017a.692.692,0,0,1,.182.149h0c.011.011.022.024.033.037,1.807,2.1,5.36,2.1,7.732.286.18-.136.329-.18.431-.134l.013.009a0,0,0,0,0,0,0C255.466,172.239,255.518,172.371,255.509,172.585Z" transform="translate(-236.185 -170.772)"/><g transform="translate(0.15)"><path class="l" d="M290.021,169.854c-.1-.045-.251,0-.431.134-2.234,1.709-5.516,1.811-7.4.056a6.346,6.346,0,0,0,5.637-1.07c.18-.136.329-.18.431-.134Z" transform="translate(-270.996 -168.451)"/><path class="l" d="M241.127,168.156c-.2-.1-.386,0-.507.3-1.7,4.231-5.332,8.518-7.752,9.591a1.371,1.371,0,0,0-.477.355,1.145,1.145,0,0,0-.121.167l-1.759-1.016a1.216,1.216,0,0,1,.119-.165.94.94,0,0,1,.078-.08l0,0c.011-.009.019-.02.03-.03a.357.357,0,0,0,.03-.028,1.3,1.3,0,0,1,.336-.214c2.42-1.072,6.049-5.36,7.751-9.591.122-.3.3-.394.5-.3Z" transform="translate(-230.512 -167.109)"/><path class="j" d="M231.429,214.071a.171.171,0,0,1,.03-.028c-.011.011-.02.022-.03.03S231.426,214.071,231.429,214.071Z" transform="translate(-231.229 -203.875)"/><path class="m" d="M231.459,214.043c-.011.011-.02.022-.03.03s0,0,0,0A.171.171,0,0,1,231.459,214.043Z" transform="translate(-231.229 -203.875)"/></g><path class="m" d="M235.548,233.475l-.033-.015-1.824-1.055c-2.363-1.41-3.522-4.309-3.522-7.054l-.349-9.5a.94.94,0,0,1,.149-.529l1.759,1.016a.951.951,0,0,0-.147.526l.349,9.5c0,2.745,1.159,5.643,3.523,7.054l.063.039Z" transform="translate(-229.819 -204.878)"/><g transform="translate(9.02 12.051)"><path class="f" d="M274.385,230.542l-2.815,1.626.436-5.093a1.327,1.327,0,0,1-.551-1.245,3.647,3.647,0,0,1,1.523-2.91c.841-.485,1.523.03,1.523,1.151a3.827,3.827,0,0,1-.551,1.882Z" transform="translate(-271.455 -222.737)"/><path class="d" d="M274.8,253.443l-2.55-1.472-.265,3.1Z" transform="translate(-271.871 -245.637)"/><path class="d" d="M273.789,222.919a3.323,3.323,0,0,0-1.3,1.723l2.27,1.311h0a3.828,3.828,0,0,0,.551-1.882C275.312,222.949,274.63,222.434,273.789,222.919Z" transform="translate(-272.266 -222.737)"/></g></g><g transform="translate(17.993 74.834)"><path class="n" d="M115.918,384.4v.847a3.333,3.333,0,0,0,1.967,2.75,10.576,10.576,0,0,0,7.324.839l2.262,1.306,1.738-.393,1.186.685.065,1.434.639.369,1.6.141,1.153.643v.808l1.447.836h3.681l1.319-.761v-.855l-11.772-5.942a2.709,2.709,0,0,0,.815-1.851V384.4c-.177-.826-.865-1.253-1.965-1.887a10.5,10.5,0,0,0-9.5,0C116.706,383.2,116.037,383.514,115.918,384.4Zm3.606-.989a2.974,2.974,0,0,1,2.691,0,.82.82,0,0,1,0,1.554,2.974,2.974,0,0,1-2.691,0A.82.82,0,0,1,119.523,383.415Z" transform="translate(-115.918 -380.527)"/><path class="o" d="M115.918,384.4v.847a3.333,3.333,0,0,0,1.967,2.75,10.576,10.576,0,0,0,7.324.839l2.262,1.306,1.738-.393,1.186.685.065,1.434.639.369,1.6.141,1.153.643v.808l1.447.836h3.681l1.319-.761v-.855l-11.772-5.942a2.709,2.709,0,0,0,.815-1.851V384.4c-.177-.826-.865-1.253-1.965-1.887a10.5,10.5,0,0,0-9.5,0C116.706,383.2,116.037,383.514,115.918,384.4Zm3.606-.989a2.974,2.974,0,0,1,2.691,0,.82.82,0,0,1,0,1.554,2.974,2.974,0,0,1-2.691,0A.82.82,0,0,1,119.523,383.415Z" transform="translate(-115.918 -380.527)"/><path class="p" d="M117.885,384.056a10.578,10.578,0,0,0,7.324.839l2.262,1.306,1.738-.393,1.186.685.065,1.434.639.369,1.6.141,1.251.7-.1.753,1.447.836h3.681l1.319-.761-11.772-6.8c1.386-1.471,1.006-3.349-1.149-4.593a10.5,10.5,0,0,0-9.5,0C115.262,380.086,115.262,382.542,117.885,384.056Zm1.638-4.586a2.972,2.972,0,0,1,2.691,0,.82.82,0,0,1,0,1.554,2.974,2.974,0,0,1-2.691,0A.82.82,0,0,1,119.523,379.47Z" transform="translate(-115.918 -377.437)"/><path class="q" d="M125.325,387.138a8.909,8.909,0,0,1-4.377-1.036,2.177,2.177,0,0,1,0-4.2,9.764,9.764,0,0,1,8.754,0,2.177,2.177,0,0,1,0,4.2A8.908,8.908,0,0,1,125.325,387.138Zm0-5.97a8.611,8.611,0,0,0-4.228,1c-.919.531-1.446,1.2-1.446,1.84s.527,1.309,1.446,1.84a9.472,9.472,0,0,0,8.457,0c.919-.531,1.446-1.2,1.446-1.84s-.527-1.309-1.446-1.84A8.609,8.609,0,0,0,125.325,381.169Z" transform="translate(-118.609 -380.127)"/><path class="o" d="M135.762,411.9v.854a11.39,11.39,0,0,0,4.992-.036v-.854A11.39,11.39,0,0,1,135.762,411.9Z" transform="translate(-131.463 -404.406)"/><path class="o" d="M169.247,416.472v.855l1.738-.393v-.855Z" transform="translate(-157.694 -407.708)"/><path class="o" d="M182.744,419.24v.855l.065,1.434v-.855Z" transform="translate(-168.267 -410.184)"/><path class="o" d="M185.992,427.561v.855l1.6.141V427.7Z" transform="translate(-170.811 -416.702)"/><rect class="o" width="3.681" height="0.855" transform="translate(19.387 13.287)"/><path class="m" d="M223.715,435.255v.855l-1.319.761v-.855l.578-.334v.369l.319-.184v-.373Z" transform="translate(-199.328 -422.729)"/><path class="j" d="M225.383,436.36l-.319.188v.369l.319-.184Z" transform="translate(-201.419 -423.595)"/><path class="m" d="M182.884,411.822v.373l-12.072-6.971.319-.188Z" transform="translate(-158.919 -399.057)"/><path class="m" d="M171.131,405.036v.373l-.319-.185Z" transform="translate(-158.919 -399.057)"/></g></g></g></g></svg>