<svg xmlns="http://www.w3.org/2000/svg" xmlns:xlink="http://www.w3.org/1999/xlink" width="104.648" height="63.935" viewBox="0 0 104.648 63.935"><defs><style>.a{fill:url(#a);}.b{fill:#093856;}.c{fill:#f1c40f;}.d,.m,.o{fill:none;}.d{stroke:#e67e22;stroke-miterlimit:10;stroke-width:0.729px;}.e,.l{fill:#fff;}.f{opacity:0.5;fill:url(#b);}.g{fill:#f7dc6f;}.h{fill:#d9e8ff;opacity:0.88;}.i{fill:#5bbefa;}.j{fill:#126fab;}.k{fill:#000e5b;}.l{stroke:#f1c40f;}.l,.m{stroke-width:2px;}.m{stroke:#23ac6c;}.n{stroke:none;}</style><linearGradient id="a" x1="1.188" y1="-0.47" x2="1.188" y2="-1.709" gradientUnits="objectBoundingBox"><stop offset="0" stop-color="#014c7c"/><stop offset="1" stop-color="#0171ba"/></linearGradient><linearGradient id="b" x1="2.848" y1="-0.31" x2="1.245" y2="-0.951" gradientUnits="objectBoundingBox"><stop offset="0" stop-color="#fff"/><stop offset="1" stop-color="#fff" stop-opacity="0"/></linearGradient></defs><g transform="translate(0)"><g transform="translate(0)"><g transform="translate(14.105 26.243)"><rect class="a" width="29.722" height="21.158" rx="4.857" transform="translate(0 21.017) rotate(-45)"/><rect class="b" width="29.722" height="4.644" transform="translate(9.938 30.955) rotate(-45)"/><path class="c" d="M1.578,0H6.356A1.578,1.578,0,0,1,7.934,1.578V4.2A1.579,1.579,0,0,1,6.356,5.782H1.579A1.579,1.579,0,0,1,0,4.2V1.578A1.578,1.578,0,0,1,1.578,0Z" transform="translate(15.624 8.437) rotate(-45)"/><circle class="d" cx="1.661" cy="1.661" r="1.661" transform="translate(18.813 6.015)"/><line class="d" x1="0.87" y1="0.87" transform="translate(18.429 5.632)"/><line class="d" x2="0.87" y2="0.87" transform="translate(21.648 8.85)"/><line class="d" y1="1.631" x2="1.631" transform="translate(21.648 4.871)"/><line class="d" x1="1.631" y2="1.631" transform="translate(17.668 8.85)"/><path class="e" d="M449.48,399.227l-3.066,3.066a.615.615,0,0,0,0,.87h0a.615.615,0,0,0,.87,0l3.066-3.066a.616.616,0,0,0,0-.87h0A.615.615,0,0,0,449.48,399.227Z" transform="translate(-436.737 -375.687)"/><path class="f" d="M448.376,355.477a2.454,2.454,0,0,0-.619.45l-17.538,17.537a2.461,2.461,0,0,0,0,3.479L441.7,388.426a2.461,2.461,0,0,0,3.479,0l3.2-3.2Z" transform="translate(-428.479 -354.187)"/></g><path class="g" d="M628.909,310.726l.4,1.355a1.509,1.509,0,0,0,1.019,1.019l1.355.4a.208.208,0,0,1,0,.4l-1.355.4a1.51,1.51,0,0,0-1.019,1.019l-.4,1.355a.208.208,0,0,1-.4,0l-.4-1.355a1.511,1.511,0,0,0-1.019-1.019l-1.356-.4a.208.208,0,0,1,0-.4l1.356-.4a1.511,1.511,0,0,0,1.019-1.019l.4-1.355A.208.208,0,0,1,628.909,310.726Z" transform="translate(-541.136 -287.788)"/><path class="g" d="M426.653,424.875l.4,1.356a1.511,1.511,0,0,0,1.019,1.019l1.355.4a.208.208,0,0,1,0,.4l-1.355.4a1.511,1.511,0,0,0-1.019,1.019l-.4,1.355a.208.208,0,0,1-.4,0l-.4-1.355a1.511,1.511,0,0,0-1.019-1.019l-1.356-.4a.208.208,0,0,1,0-.4l1.356-.4a1.511,1.511,0,0,0,1.019-1.019l.4-1.356A.208.208,0,0,1,426.653,424.875Z" transform="translate(-423.33 -370.116)"/><path class="g" d="M602.261,430.949l.4,1.355a1.511,1.511,0,0,0,1.019,1.019l1.356.4a.208.208,0,0,1,0,.4l-1.356.4a1.511,1.511,0,0,0-1.019,1.019l-.4,1.355a.208.208,0,0,1-.4,0l-.4-1.355a1.511,1.511,0,0,0-1.019-1.019l-1.355-.4a.208.208,0,0,1,0-.4l1.355-.4a1.511,1.511,0,0,0,1.019-1.019l.4-1.355A.208.208,0,0,1,602.261,430.949Z" transform="translate(-509.986 -373.114)"/><path class="g" d="M602.261,430.949l.4,1.355a1.511,1.511,0,0,0,1.019,1.019l1.356.4a.208.208,0,0,1,0,.4l-1.356.4a1.511,1.511,0,0,0-1.019,1.019l-.4,1.355a.208.208,0,0,1-.4,0l-.4-1.355a1.511,1.511,0,0,0-1.019-1.019l-1.355-.4a.208.208,0,0,1,0-.4l1.355-.4a1.511,1.511,0,0,0,1.019-1.019l.4-1.355A.208.208,0,0,1,602.261,430.949Z" transform="translate(-571.986 -425.114)"/><path class="g" d="M645.367,383.258a1.194,1.194,0,1,0-1.194,1.194A1.194,1.194,0,0,0,645.367,383.258Z" transform="translate(-540.718 -382.064)"/></g><g transform="translate(41 1.555)"><path class="h" d="M4.559,0h19.02a4.559,4.559,0,0,1,4.559,4.559V47.676a4.56,4.56,0,0,1-4.56,4.56H4.56A4.56,4.56,0,0,1,0,47.676V4.559A4.559,4.559,0,0,1,4.559,0Z" transform="translate(1.749 4.436)"/><path class="i" d="M455.69,141.458H428.926a2.435,2.435,0,0,0-2.435,2.435v56.239a2.435,2.435,0,0,0,2.435,2.435H455.69a2.435,2.435,0,0,0,2.435-2.435V143.893A2.435,2.435,0,0,0,455.69,141.458Zm.686,55.41a1.262,1.262,0,0,1-1.262,1.262H429.5a1.262,1.262,0,0,1-1.261-1.262V147.156a1.262,1.262,0,0,1,1.261-1.262h25.613a1.262,1.262,0,0,1,1.262,1.262Z" transform="translate(-426.491 -141.458)"/><path class="j" d="M430.456,204.875h26.765a2.435,2.435,0,0,0,2.435-2.435V146.2a2.424,2.424,0,0,0-.558-1.551l-1.892,3.685a1.26,1.26,0,0,1,.7,1.129v49.712a1.262,1.262,0,0,1-1.262,1.262H431.032a1.253,1.253,0,0,1-.525-.116l-1.9,3.7A2.429,2.429,0,0,0,430.456,204.875Z" transform="translate(-428.021 -143.767)"/><path class="k" d="M476.4,148.159a.815.815,0,1,1,.815-.814A.814.814,0,0,1,476.4,148.159Z" transform="translate(-461.996 -145.126)"/><path class="k" d="M490.5,148.184h0a.494.494,0,0,0-.493-.494h-3.241a.494.494,0,0,0-.494.494h0a.494.494,0,0,0,.494.493h3.241A.493.493,0,0,0,490.5,148.184Z" transform="translate(-469.728 -145.965)"/></g><g transform="translate(45 20.156)"><g class="l" transform="translate(0 0.399)"><circle class="n" cx="11.5" cy="11.5" r="11.5"/><circle class="o" cx="11.5" cy="11.5" r="10.5"/></g><path class="m" d="M1206.805,2848.5l4.282,4.282,7.922-7.922" transform="translate(-1202 -2836.601)"/></g></g></svg>