<svg enable-background="new 0 0 256 256" height="512" viewBox="0 0 256 256" width="512" xmlns="http://www.w3.org/2000/svg"><circle cx="128" cy="50.586" fill="#f9d87a" r="48.086"/><circle cx="128" cy="50.586" fill="#facb35" r="36.421"/><path d="m123.79 67.153c-1.463 0-2.926-.558-4.043-1.674l-10.479-10.479c-2.232-2.232-2.232-5.852 0-8.084 2.233-2.232 5.852-2.232 8.085 0l6.437 6.437 15.664-15.664c2.233-2.232 5.852-2.232 8.085 0 2.232 2.232 2.232 5.852 0 8.084l-19.706 19.706c-1.117 1.115-2.58 1.674-4.043 1.674z" fill="#edf4fc"/><path d="m122.054 166.676 7.182-7.044 45.84 45.937 10.371-10.371c2.569-2.569 4.719-5.524 6.372-8.759l2.962-5.795c1.816-3.552 4.177-6.798 6.997-9.618l14.154-14.154-41.837-41.837-7.378 7.174c-5.248 4.822-10.984 7.78-16.795 8.664l-8.782 1.608c-8.335 1.506-16.012 5.522-22.001 11.511-5.589 5.589-4.909 4.909-9.885 9.885-3.52 3.52-3.52 9.28 0 12.8s9.28 3.519 12.8-.001z" fill="#f9c1a8"/><path d="m174.719 216.706c3.173-3.173 3.173-8.317 0-11.489-5.418-5.418-37.784-37.869-37.784-37.869l-7.699-7.715-7.182 7.044c-3.491 3.491-9.185 3.52-12.712.086-3.615-3.52-3.481-9.491.086-13.059 4.787-4.787 4.188-4.188 9.711-9.711 2.956-2.956 6.323-5.428 9.977-7.358-3.75-1.981-7.802-3.39-12.024-4.153l-8.783-1.608c-5.811-.884-11.547-3.841-16.795-8.664l-7.378-7.174-41.836 41.836 14.154 14.154c2.821 2.821 5.182 6.066 6.997 9.618l2.962 5.795c1.653 3.235 3.804 6.19 6.373 8.759l55.814 55.814.001-.001c3.093 3.093 8.13 3.378 11.366.435 3.454-3.142 3.551-8.492.29-11.757 3.173 3.168 8.313 3.167 11.485-.004 3.173-3.173 3.173-8.317 0-11.489 3.173 3.173 8.317 3.173 11.489 0 3.171-3.171 3.172-8.311.005-11.484 3.172 3.167 8.312 3.165 11.483-.006z" fill="#f9c1a8"/><path d="m60.899 76.966c-1.203-1.203-3.153-1.211-4.356-.008-15.654 15.654-33.621 33.621-53.138 53.138-1.203 1.203-1.204 3.163-.001 4.366l18.934 18.934c.978.978 2.564.978 3.542 0l53.954-53.954c.978-.978.978-2.564 0-3.542-2.7-2.699-9.983-9.981-18.935-18.934z" fill="#1387ce"/><path d="m252.598 132.336-53.149-53.129c-1.203-1.203-3.158-1.198-4.361.005-7.917 7.917-14.23 14.23-16.688 16.689-.978.978-.978 2.564 0 3.542l53.954 53.954c.978.978 2.564.978 3.542 0l16.698-16.698c1.202-1.203 1.207-3.16.004-4.363z" fill="#1387ce"/><path d="m86.323 109.307-8.177-8.177-49.714 49.714 8.177 8.177c.978.978 2.564.978 3.542 0l46.172-46.172c.978-.978.978-2.563 0-3.542z" fill="#c5e3ff"/><path d="m171.91 109.307 8.177-8.177 49.714 49.714-8.177 8.177c-.978.978-2.564.978-3.542 0l-46.172-46.172c-.978-.978-.978-2.563 0-3.542z" fill="#c5e3ff"/><path d="m38.38 162.256c-1.337 0-2.594-.521-3.539-1.467l-8.177-8.178c-.977-.977-.977-2.559 0-3.535l49.714-49.714c.976-.977 2.56-.977 3.535 0l8.178 8.178c.945.944 1.466 2.201 1.466 3.538s-.521 2.594-1.465 3.539l-46.173 46.172c-.945.945-2.202 1.467-3.539 1.467zm-6.413-11.412 6.409 6.41 46.179-46.172v-.007l-6.41-6.41z"/><path d="m219.854 162.253c-1.282 0-2.563-.488-3.539-1.464l-46.172-46.172c-.945-.945-1.467-2.202-1.467-3.539s.521-2.593 1.467-3.538l8.177-8.178c.938-.938 2.598-.938 3.535 0l49.715 49.714c.469.469.732 1.104.732 1.768s-.264 1.299-.732 1.768l-8.178 8.178c-.976.975-2.257 1.463-3.538 1.463zm-39.767-57.588-6.409 6.41s0 .001-.001.001l-.002.003 46.175 46.175 6.416-6.411zm-8.177 4.643h.01z"/><path d="m24.109 156.627c-1.282 0-2.563-.487-3.538-1.462l-18.935-18.935c-2.178-2.178-2.178-5.723.001-7.901l53.138-53.139c1.052-1.052 2.45-1.631 3.938-1.631h.014c1.488.004 2.887.586 3.939 1.639l18.935 18.935c.946.945 1.466 2.202 1.466 3.539s-.521 2.593-1.466 3.538l-53.954 53.954c-.975.976-2.257 1.463-3.538 1.463zm34.604-78.067c-.108 0-.265.029-.402.166l-53.139 53.138c-.225.226-.226.606-.001.831l18.934 18.934 53.96-53.954-18.934-18.942c-.143-.144-.305-.174-.416-.174-.001.001-.001.001-.002.001z"/><path d="m234.124 156.627c-1.282 0-2.563-.487-3.538-1.463l-53.954-53.954c-1.95-1.95-1.951-5.125-.001-7.076l16.689-16.689c2.179-2.179 5.722-2.179 7.896-.004l53.148 53.127h-.001.001c1.056 1.056 1.635 2.459 1.633 3.954-.003 1.49-.584 2.892-1.638 3.944l-16.697 16.698c-.975.976-2.257 1.463-3.538 1.463zm-36.852-75.819c-.15 0-.302.058-.418.173l-16.688 16.688 53.954 53.96 16.704-16.698c.143-.143.173-.306.173-.418 0-.109-.029-.27-.167-.408-.001 0-.001 0-.001 0l-53.148-53.128c-.112-.114-.26-.169-.409-.169z"/><path d="m175.076 208.069c-.665 0-1.301-.265-1.77-.734l-44.089-44.182-5.404 5.3c-4.504 4.494-11.827 4.491-16.326-.009-2.175-2.175-3.373-5.075-3.373-8.168s1.198-5.993 3.373-8.167l9.885-9.885c6.38-6.38 14.445-10.601 23.324-12.204l8.776-1.607c5.356-.815 10.709-3.594 15.554-8.045l7.326-7.125c.981-.953 2.545-.944 3.511.024l41.837 41.837c.977.977.977 2.559 0 3.535l-14.154 14.154c-2.64 2.642-4.84 5.666-6.538 8.988l-2.963 5.795c-1.774 3.473-4.073 6.632-6.83 9.389l-10.371 10.371c-.469.47-1.105.733-1.768.733zm-45.84-50.936c.641 0 1.281.245 1.77.734l44.072 44.165 8.602-8.602c2.387-2.388 4.377-5.122 5.914-8.129l2.961-5.795c1.937-3.789 4.445-7.236 7.455-10.248l12.388-12.387-38.326-38.326-5.61 5.455c-5.631 5.176-11.894 8.39-18.162 9.343l-8.708 1.596c-7.877 1.423-15.027 5.165-20.684 10.82l-9.885 9.885c-1.23 1.23-1.908 2.875-1.908 4.632s.678 3.402 1.908 4.633c2.553 2.554 6.709 2.552 9.264 0 .006-.006.011-.012.017-.018l7.182-7.044c.486-.476 1.118-.714 1.75-.714z"/><path d="m155.608 164.173c-10.146 0-17.863-3.97-21.212-6.05l-3.423 3.308c-.993.958-2.575.933-3.535-.061-.959-.993-.932-2.575.061-3.535l4.879-4.715c.891-.861 2.28-.939 3.263-.183.121.092 12.763 9.532 29.23 4.957 1.335-.37 2.709.408 3.078 1.738.37 1.331-.408 2.709-1.738 3.078-3.746 1.043-7.303 1.463-10.603 1.463z"/><path d="m134.581 256.017c-2.79 0-5.597-1.087-7.748-3.237l-55.814-55.813c-2.757-2.757-5.056-5.915-6.831-9.389l-2.962-5.795c-1.699-3.323-3.899-6.348-6.539-8.988l-14.154-14.155c-.977-.977-.977-2.559 0-3.535l41.837-41.837c.967-.968 2.531-.979 3.51-.024l7.378 7.174c4.793 4.402 10.146 7.18 15.428 7.983l8.857 1.621c4.445.803 8.734 2.284 12.742 4.402.819.433 1.332 1.283 1.332 2.21s-.513 1.777-1.332 2.211c-3.462 1.828-6.617 4.155-9.376 6.915l-9.712 9.711c-1.287 1.287-2.018 3.086-2.005 4.937.012 1.766.685 3.386 1.895 4.564 2.553 2.485 6.681 2.458 9.2-.062l7.2-7.062c.979-.959 2.551-.952 3.52.02l7.699 7.715c.001 0 32.364 32.449 37.781 37.867 4.143 4.143 4.143 10.882 0 15.024-2.301 2.301-5.407 3.329-8.421 3.067.257 3.016-.766 6.121-3.067 8.422-2.007 2.007-4.675 3.112-7.513 3.112-.305 0-.608-.013-.908-.038.254 3.013-.769 6.114-3.068 8.415-2.3 2.299-5.404 3.319-8.415 3.067.032.385.044.773.034 1.165-.07 2.931-1.306 5.633-3.479 7.611-2.003 1.82-4.529 2.722-7.069 2.722zm-88.745-99.145 12.386 12.387c3.01 3.011 5.519 6.458 7.456 10.248l2.962 5.795c1.537 3.007 3.527 5.742 5.914 8.129l55.813 55.813c2.183 2.179 5.731 2.339 7.917.353 1.152-1.049 1.808-2.48 1.845-4.032.038-1.552-.546-3.012-1.643-4.109-.975-.977-.974-2.559.002-3.534.977-.977 2.558-.977 3.534-.002 2.193 2.19 5.76 2.188 7.951-.002 2.191-2.193 2.191-5.761 0-7.954-.488-.488-.732-1.128-.732-1.768 0-.641.244-1.28.732-1.768.977-.977 2.561-.977 3.535 0 1.062 1.062 2.475 1.647 3.977 1.647 1.503 0 2.915-.585 3.978-1.647 2.19-2.191 2.191-5.758.002-7.95-.975-.977-.974-2.559.002-3.534.977-.977 2.558-.977 3.534-.002l.003.003c0 .001.001.002.002.003 2.192 2.183 5.755 2.18 7.945-.009 2.192-2.193 2.192-5.761 0-7.954-5.419-5.418-37.786-37.871-37.786-37.871l-5.947-5.96-5.413 5.309c-4.426 4.426-11.704 4.476-16.207.092-2.176-2.118-3.386-4.999-3.407-8.112-.021-3.18 1.243-6.279 3.469-8.506l9.712-9.711c1.962-1.963 4.101-3.73 6.392-5.286-2.301-.89-4.682-1.558-7.116-1.998l-8.789-1.609c-6.194-.94-12.457-4.154-18.036-9.281l-5.662-5.504z"/><path d="m163.234 219.211c-.64 0-1.279-.244-1.768-.732l-36.89-36.891c-.977-.977-.977-2.559 0-3.535.976-.977 2.56-.977 3.535 0l36.89 36.891c.977.977.977 2.559 0 3.535-.487.488-1.127.732-1.767.732z"/><path d="m151.741 230.695c-.64 0-1.279-.244-1.768-.732l-36.886-36.886c-.977-.977-.977-2.559 0-3.535.976-.977 2.56-.977 3.535 0l36.886 36.886c.977.977.977 2.559 0 3.535-.487.488-1.127.732-1.767.732z"/><path d="m140.256 242.188c-.64 0-1.279-.244-1.768-.732l-36.89-36.89c-.977-.977-.977-2.559 0-3.535.976-.977 2.56-.977 3.535 0l36.89 36.89c.977.977.977 2.559 0 3.535-.488.488-1.127.732-1.767.732z"/><path d="m128 101.171c-27.893 0-50.585-22.692-50.585-50.585 0-27.894 22.692-50.586 50.585-50.586 27.894 0 50.586 22.692 50.586 50.586 0 27.893-22.692 50.585-50.586 50.585zm0-96.171c-25.136 0-45.585 20.45-45.585 45.586s20.449 45.585 45.585 45.585 45.586-20.449 45.586-45.585-20.45-45.586-45.586-45.586z"/><path d="m128 89.507c-21.461 0-38.921-17.46-38.921-38.921 0-21.462 17.46-38.922 38.921-38.922s38.921 17.46 38.921 38.922c0 21.461-17.46 38.921-38.921 38.921zm0-72.843c-18.704 0-33.921 15.218-33.921 33.922s15.217 33.921 33.921 33.921 33.921-15.217 33.921-33.921-15.217-33.922-33.921-33.922z"/><path d="m123.79 69.652c-2.194 0-4.258-.854-5.81-2.405l-10.48-10.48c-3.204-3.203-3.204-8.417 0-11.62 3.203-3.203 8.416-3.203 11.62 0l4.669 4.67 13.896-13.896c3.204-3.204 8.418-3.202 11.62 0 3.204 3.203 3.204 8.416 0 11.619l-19.705 19.706c-1.552 1.552-3.615 2.406-5.81 2.406zm-10.48-21.911c-.824 0-1.647.313-2.275.94-.607.607-.942 1.416-.942 2.275 0 .858.334 1.667.942 2.274l10.479 10.479c1.215 1.213 3.335 1.215 4.55 0l19.706-19.707c1.254-1.254 1.254-3.295 0-4.549-1.254-1.255-3.296-1.254-4.55.001l-15.664 15.663c-.469.469-1.104.732-1.768.732-.663 0-1.299-.264-1.768-.732l-6.437-6.438c-.625-.624-1.449-.938-2.273-.938z"/></svg>