<svg xmlns="http://www.w3.org/2000/svg" width="50.17" height="50.048" viewBox="0 0 50.17 50.048"><defs><style>.a{fill:#558ed4;}</style></defs><path class="a" d="M20.039,44.937v5.081l-1.229-.993a82.371,82.371,0,0,1-9.287-9.08C3.2,32.692,0,26.18,0,20.592v-.554a20.039,20.039,0,0,1,40.077,0v.554c0,.469-.025.946-.07,1.428l-3.919-3.575A16.129,16.129,0,0,0,3.91,20.038v.554c0,9.443,12.167,20.874,16.129,24.346Zm12.023-2.808h5.865V36.264H32.062Zm-12.023-30.4a8.309,8.309,0,1,1-8.309,8.309A8.318,8.318,0,0,1,20.039,11.729Zm0,3.91a4.4,4.4,0,1,0,4.4,4.4A4.4,4.4,0,0,0,20.039,15.639Zm27.5,23.833-1.1-1v6.277a5.307,5.307,0,0,1-5.3,5.3H28.756a5.307,5.307,0,0,1-5.3-5.3V38.469l-1.1,1L19.72,36.584,34.945,22.694,50.17,36.584ZM42.526,34.9l-7.581-6.915L27.365,34.9v9.844a1.392,1.392,0,0,0,1.391,1.391H41.135a1.392,1.392,0,0,0,1.391-1.391Zm0,0" transform="translate(0 0.001)"/></svg>