<svg xmlns="http://www.w3.org/2000/svg" width="18.819" height="22.342" viewBox="0 0 18.819 22.342"><defs><style>.a{fill:#fff;}</style></defs><path class="a" d="M18.425,17.412a12.147,12.147,0,0,1-1.2,2.16,10.973,10.973,0,0,1-1.547,1.87,3,3,0,0,1-1.989.876,4.984,4.984,0,0,1-1.837-.439,5.271,5.271,0,0,0-1.978-.437,5.45,5.45,0,0,0-2.034.437,5.472,5.472,0,0,1-1.757.462,2.826,2.826,0,0,1-2.034-.9A11.522,11.522,0,0,1,2.43,19.505a13.391,13.391,0,0,1-1.711-3.4A12.447,12.447,0,0,1,0,12.054,7.4,7.4,0,0,1,.972,8.183,5.7,5.7,0,0,1,3.006,6.125a5.474,5.474,0,0,1,2.751-.776,6.477,6.477,0,0,1,2.128.5,6.84,6.84,0,0,0,1.688.5,10.1,10.1,0,0,0,1.871-.585A6.186,6.186,0,0,1,13.988,5.3a5.4,5.4,0,0,1,4.231,2.228,4.706,4.706,0,0,0-2.5,4.275,4.717,4.717,0,0,0,1.549,3.554,5.089,5.089,0,0,0,1.547,1.015q-.186.54-.394,1.036ZM14.114.447a4.766,4.766,0,0,1-1.222,3.126A4.163,4.163,0,0,1,9.434,5.28a3.479,3.479,0,0,1-.026-.423A4.9,4.9,0,0,1,10.7,1.7,4.991,4.991,0,0,1,12.284.512,4.708,4.708,0,0,1,14.09,0a4.06,4.06,0,0,1,.023.447Z" transform="translate(0 -0.001)"/></svg>