<svg xmlns="http://www.w3.org/2000/svg" width="20.889" height="17.591" viewBox="0 0 20.889 17.591"><defs><style>.a{fill:#777;}</style></defs><g transform="translate(-3.703 -40)"><path class="a" d="M37.5,105.1a1.1,1.1,0,0,0-1.1-1.1H33.1a1.1,1.1,0,0,0-1.1,1.1v7.7h5.5Z" transform="translate(-28.297 -55.205)"/><path class="a" d="M93.5,73.1A1.1,1.1,0,0,0,92.4,72H89.1A1.1,1.1,0,0,0,88,73.1V85.193h5.5Z" transform="translate(-76.601 -27.602)"/><path class="a" d="M149.5,41.1a1.1,1.1,0,0,0-1.1-1.1h-3.3a1.1,1.1,0,0,0-1.1,1.1V57.591h5.5Z" transform="translate(-124.905 0)"/></g></svg>