<svg xmlns="http://www.w3.org/2000/svg" width="18.75" height="21.429" viewBox="0 0 18.75 21.429"><defs><style>.a{fill:#777;}</style></defs><path class="a" d="M9.374,21.429a2.678,2.678,0,0,0,2.677-2.679H6.7A2.678,2.678,0,0,0,9.374,21.429Zm9.015-6.266c-.809-.869-2.322-2.176-2.322-6.457a6.609,6.609,0,0,0-5.355-6.494V1.339a1.338,1.338,0,1,0-2.677,0v.872A6.609,6.609,0,0,0,2.681,8.705c0,4.282-1.513,5.589-2.322,6.457a1.308,1.308,0,0,0-.36.909,1.34,1.34,0,0,0,1.343,1.339H17.406a1.34,1.34,0,0,0,1.343-1.339A1.307,1.307,0,0,0,18.389,15.163Z" transform="translate(0.001)"/></svg>