<svg xmlns="http://www.w3.org/2000/svg" width="73.638" height="28.199" viewBox="0 0 73.638 28.199"><defs><style>.a{fill:#558ed4;}.b{fill:#fefe00;}</style></defs><path class="a" d="M14.962,28.189h-6.3a8.456,8.456,0,0,1-5.587-1.96A8.32,8.32,0,0,1,.134,21.175a10.056,10.056,0,0,1-.141-1.8q0-5.387,0-10.771A8.4,8.4,0,0,1,1.959,3.07,8.324,8.324,0,0,1,7.026.136,9.746,9.746,0,0,1,8.759,0H21.236a8.461,8.461,0,0,1,5.587,1.966,8.318,8.318,0,0,1,2.944,5.054,10.074,10.074,0,0,1,.141,1.8V19.59a8.411,8.411,0,0,1-1.966,5.531,8.321,8.321,0,0,1-5.063,2.934,9.838,9.838,0,0,1-1.733.139Zm.013-26.211H8.606a6.944,6.944,0,0,0-2.445.43A6.49,6.49,0,0,0,1.984,8.29q-.031,5.81,0,11.618a6.066,6.066,0,0,0,1.573,4.039A6.405,6.405,0,0,0,8.59,26.209H21.255a6.478,6.478,0,0,0,3.069-.7A6.179,6.179,0,0,0,27.9,19.953c.085-3.91.03-7.824.017-11.735A5.68,5.68,0,0,0,27.1,5.323a6.4,6.4,0,0,0-5.83-3.342c-2.095-.012-4.195,0-6.293,0Z" transform="translate(0.008 0.004)"/><path class="a" d="M537.543,125.747a3.344,3.344,0,0,1-1.342,1.117,3.226,3.226,0,0,1-4.156-1.487,5.215,5.215,0,0,1-.084-4.789,3.2,3.2,0,0,1,3.45-1.756,3.108,3.108,0,0,1,2.051,1.135q.054.062.112.121a.436.436,0,0,0,.071.037c.013-.145.023-.28.037-.414a.974.974,0,0,1,1.385-.848.709.709,0,0,1,.449.538,2.656,2.656,0,0,1,.107.766q0,3.335-.009,6.669a4.541,4.541,0,0,1-.323,1.679,2.685,2.685,0,0,1-1.9,1.649,6.758,6.758,0,0,1-3.834-.048,3.132,3.132,0,0,1-1.433-.871,1.451,1.451,0,0,1-.378-.721.851.851,0,0,1,.381-.918.968.968,0,0,1,1.066.051,1.565,1.565,0,0,1,.375.388,2.2,2.2,0,0,0,2.261.885c.133-.015.264-.039.393-.065a1.437,1.437,0,0,0,1.216-1.243A9.808,9.808,0,0,0,537.543,125.747Zm.049-2.694a3.475,3.475,0,0,0-.393-1.731,1.807,1.807,0,0,0-1.642-.964,1.669,1.669,0,0,0-1.616.944,3.611,3.611,0,0,0-.089,3.146,1.863,1.863,0,0,0,3.186.384A2.838,2.838,0,0,0,537.592,123.053Z" transform="translate(-479.179 -107.114)"/><path class="a" d="M327.5,98.829a.983.983,0,0,1-.932-.579,18.5,18.5,0,0,1-.839-2.046.326.326,0,0,0-.367-.258q-2.039.016-4.08,0a.268.268,0,0,0-.295.211c-.261.688-.512,1.382-.8,2.064a1.043,1.043,0,0,1-1.782.2,1,1,0,0,1-.2-.907,14.488,14.488,0,0,1,.677-1.829q1.409-3.594,2.83-7.176a4.335,4.335,0,0,1,.189-.4,1.5,1.5,0,0,1,1.369-.879,1.528,1.528,0,0,1,1.483.811,15.471,15.471,0,0,1,.786,1.868q1.412,3.453,2.8,6.913c.091.225.153.46.222.693A1.088,1.088,0,0,1,327.5,98.829Zm-2.486-4.58c-.559-1.527-1.111-3.031-1.661-4.536a8.218,8.218,0,0,0-.432,1.039c-.393,1.1-.792,2.193-1.18,3.292-.02.055-.172.2.058.2C322.86,94.25,323.92,94.249,325.016,94.249Z" transform="translate(-286.896 -78.647)"/><path class="a" d="M628.664,122.637a4.694,4.694,0,0,1,.434-2.1,3.4,3.4,0,0,1,2.122-1.882,4.4,4.4,0,0,1,3.627.269,3.4,3.4,0,0,1,1.769,2.949,1.829,1.829,0,0,1-.048.492c-.109.487-.431.718-1.068.786a7.19,7.19,0,0,1-.823.045c-1.218,0-2.437.007-3.655,0-.211,0-.244.064-.22.257a2.473,2.473,0,0,0,.661,1.525,2.158,2.158,0,0,0,2.654.208,8.012,8.012,0,0,0,1.088-.9.819.819,0,0,1,1-.114.7.7,0,0,1,.212.9,2.559,2.559,0,0,1-1.4,1.4,4.939,4.939,0,0,1-4.243.015,3.62,3.62,0,0,1-2.064-2.935A5.344,5.344,0,0,1,628.664,122.637Zm4.009-.65h1.72c.146,0,.2-.045.178-.19a3.1,3.1,0,0,0-.16-.733,1.8,1.8,0,0,0-2.974-.688,2.473,2.473,0,0,0-.613,1.421c-.028.177.031.2.177.2C631.558,121.987,632.116,121.987,632.673,121.987Z" transform="translate(-566.861 -106.75)"/><path class="a" d="M441.282,120.072a6.1,6.1,0,0,1,.7-.714,3.275,3.275,0,0,1,3.507-.3,2.49,2.49,0,0,1,1.26,2.163c.081,1.562.021,3.126.032,4.689a2,2,0,0,1-.061.492.951.951,0,0,1-1.034.8.994.994,0,0,1-.956-.885,3.523,3.523,0,0,1-.043-.539q-.006-1.721,0-3.441a4.686,4.686,0,0,0-.1-.958c-.167-.786-.608-1.191-1.626-1.033a1.816,1.816,0,0,0-1.5,1.734c-.1,1.24-.029,2.481-.049,3.721a2.827,2.827,0,0,1-.048.562,1.021,1.021,0,0,1-2.016-.05,3.233,3.233,0,0,1-.042-.515V120a3.066,3.066,0,0,1,.04-.492.9.9,0,0,1,.937-.816.959.959,0,0,1,.944.741,2.848,2.848,0,0,1,.051.643Z" transform="translate(-396.124 -107.014)"/><path class="a" d="M727.645,92.766v-4.38a2.715,2.715,0,0,1,.047-.59.976.976,0,0,1,1.016-.833.987.987,0,0,1,1,.885,3.346,3.346,0,0,1,.04.515v8.831a2.336,2.336,0,0,1-.069.629,1.019,1.019,0,0,1-1.985-.046,2.59,2.59,0,0,1-.053-.59Q727.646,94.983,727.645,92.766Z" transform="translate(-656.112 -78.413)"/><path class="b" d="M33.11,20.113c2.1,0,4.2-.008,6.3,0a6.423,6.423,0,0,1,5.83,3.342,5.68,5.68,0,0,1,.814,2.894c.014,3.911.068,7.825-.017,11.735a6.181,6.181,0,0,1-3.571,5.557,6.423,6.423,0,0,1-3.069.7q-6.334-.009-12.665,0A6.408,6.408,0,0,1,21.7,42.08a6.056,6.056,0,0,1-1.573-4.039q-.036-5.809,0-11.618A6.488,6.488,0,0,1,24.3,20.539a6.944,6.944,0,0,1,2.445-.43C28.864,20.117,30.988,20.113,33.11,20.113ZM22.743,32.963a11.842,11.842,0,0,0,.712,4.043,7.1,7.1,0,0,0,3.039,3.777,8.224,8.224,0,0,0,3.527,1.081,10,10,0,0,0,4.956-.731,5.889,5.889,0,0,0,.869-.471,1.347,1.347,0,0,0,.658-.983,6.753,6.753,0,0,0-.028-2.087c-.073-.4-.3-.5-.67-.327a3.539,3.539,0,0,0-.383.231A6.735,6.735,0,0,1,31.5,38.7a4.243,4.243,0,0,1-4.077-2.806,9.912,9.912,0,0,1-.572-4.03,8.718,8.718,0,0,1,.688-3.342,4.263,4.263,0,0,1,4.292-2.7,5.831,5.831,0,0,1,2.966.96c.286.178.555.384.845.556.352.209.59.113.73-.271a1.411,1.411,0,0,0,.058-.228,10.572,10.572,0,0,0,.057-1.433,1.771,1.771,0,0,0-1.1-1.8c-.035-.017-.069-.036-.1-.054a8.716,8.716,0,0,0-5.407-.8,7.662,7.662,0,0,0-6.193,4.74A13.052,13.052,0,0,0,22.743,32.963Zm21.148-.715a2.933,2.933,0,1,0-.857,2.088,2.925,2.925,0,0,0,.857-2.088Z" transform="translate(-18.128 -18.132)"/><path class="a" d="M46.94,56.09a12.988,12.988,0,0,1,.947-5.473,7.662,7.662,0,0,1,6.193-4.74,8.716,8.716,0,0,1,5.407.8c.035.018.069.037.1.054a1.771,1.771,0,0,1,1.1,1.8,10.572,10.572,0,0,1-.057,1.433,1.411,1.411,0,0,1-.058.228c-.139.384-.378.481-.73.271-.295-.172-.559-.378-.845-.556a5.841,5.841,0,0,0-2.966-.96,4.267,4.267,0,0,0-4.292,2.7,8.538,8.538,0,0,0-.688,3.342,9.921,9.921,0,0,0,.572,4.03A4.246,4.246,0,0,0,55.7,61.826a6.735,6.735,0,0,0,3.919-1.2,3.539,3.539,0,0,1,.383-.231c.366-.177.6-.072.67.327a6.753,6.753,0,0,1,.028,2.087,1.339,1.339,0,0,1-.658.983,5.889,5.889,0,0,1-.869.471,9.993,9.993,0,0,1-4.956.731A8.224,8.224,0,0,1,50.7,63.91a7.114,7.114,0,0,1-3.039-3.777,11.842,11.842,0,0,1-.717-4.043Z" transform="translate(-42.325 -41.258)"/><path class="a" d="M208.4,116.63a2.931,2.931,0,1,1-.855-2.078A2.925,2.925,0,0,1,208.4,116.63Z" transform="translate(-182.638 -102.514)"/></svg>