<svg xmlns="http://www.w3.org/2000/svg" width="19.231" height="17.629" viewBox="0 0 19.231 17.629"><defs><style>.a{fill:#558ed4;}.b{fill:#f90;}</style></defs><g transform="translate(0 -0.004)"><path class="a" d="M11.516,11.92a2.4,2.4,0,0,1-3.4,0L4.711,8.514a2.4,2.4,0,1,1,3.4-3.4L9.816,6.82l4.709-4.709A8.768,8.768,0,1,0,17.234,6.2Zm0,0" transform="translate(0 0)"/><path class="b" d="M153.535,31.548a.8.8,0,0,1-.566-.235l-3.405-3.406a.8.8,0,0,1,1.133-1.133l2.839,2.839,8.048-8.047a.8.8,0,0,1,1.133,1.133L154.1,31.313A.8.8,0,0,1,153.535,31.548Zm0,0" transform="translate(-143.719 -20.526)"/></g></svg>