<svg xmlns="http://www.w3.org/2000/svg" width="16.879" height="17.591" viewBox="0 0 16.879 17.591"><defs><style>.a{fill:#777;}</style></defs><g transform="translate(-10.359 0.002)"><g transform="translate(10.359 -0.002)"><g transform="translate(0 0)"><path class="a" d="M26.424,9.021a.515.515,0,0,1,0-.456l.656-1.342A1.527,1.527,0,0,0,26.421,5.2L25.1,4.5a.516.516,0,0,1-.268-.369l-.258-1.471A1.527,1.527,0,0,0,22.851,1.4l-1.479.209a.515.515,0,0,1-.433-.141L19.864.432a1.527,1.527,0,0,0-2.132,0L16.659,1.471a.516.516,0,0,1-.433.141L14.746,1.4a1.527,1.527,0,0,0-1.725,1.253l-.258,1.471A.516.516,0,0,1,12.5,4.5l-1.32.7a1.527,1.527,0,0,0-.659,2.028l.656,1.342a.515.515,0,0,1,0,.456l-.656,1.342a1.527,1.527,0,0,0,.659,2.028l1.32.7a.515.515,0,0,1,.268.369l.258,1.471A1.526,1.526,0,0,0,14.526,16.2a1.569,1.569,0,0,0,.22-.016l1.479-.209a.515.515,0,0,1,.433.141l1.074,1.039a1.527,1.527,0,0,0,2.132,0l1.074-1.039a.516.516,0,0,1,.433-.141l1.479.209a1.527,1.527,0,0,0,1.725-1.253l.258-1.471a.516.516,0,0,1,.268-.369l1.32-.7a1.527,1.527,0,0,0,.659-2.028ZM16.769,4.228a1.86,1.86,0,1,1-1.86,1.86A1.862,1.862,0,0,1,16.769,4.228Zm-.96,8.272a.507.507,0,0,1-.717-.717l6.7-6.7A.507.507,0,0,1,22.5,5.8Zm5.018.859a1.86,1.86,0,1,1,1.86-1.86A1.862,1.862,0,0,1,20.827,13.359Z" transform="translate(-10.359 0.002)"/></g></g><g transform="translate(19.982 10.653)"><path class="a" d="M291.3,310.141a.845.845,0,1,0,.845.845A.846.846,0,0,0,291.3,310.141Z" transform="translate(-290.452 -310.141)"/></g><g transform="translate(15.924 5.242)"><g transform="translate(0)"><path class="a" d="M173.178,152.646a.845.845,0,1,0,.845.845A.846.846,0,0,0,173.178,152.646Z" transform="translate(-172.333 -152.646)"/></g></g></g></svg>