<svg xmlns="http://www.w3.org/2000/svg" width="171.16" height="52.905" viewBox="0 0 171.16 52.905"><defs><style>.a{fill:#fc0;}.b,.c{fill:#d2002e;}.c{fill-rule:evenodd;}</style></defs><path class="a" d="M171.159,0V37.772H0V0Z"/><path class="b" d="M87.055,22.467,81.587,29.9h29.8c1.507,0,1.487.572.75,1.57-.748,1.013-2,2.774-2.761,3.8-.386.522-1.085,1.473,1.231,1.473H122.8s1.965-2.673,3.611-4.908c2.24-3.04.194-9.366-7.814-9.366Z" transform="translate(-56.955 -15.684)"/><path class="b" d="M74.258,68.129,85.242,53.205h13.63c1.507,0,1.487.572.751,1.57-.748,1.013-2.02,2.755-2.781,3.784-.387.522-1.085,1.475,1.23,1.475h18.26c-1.519,2.08-6.445,8.1-15.289,8.1Z" transform="translate(-51.839 -37.142)"/><path class="b" d="M232.51,75.814l-5.956,8.1H210.842s5.953-8.1,5.958-8.1l15.71,0Z" transform="translate(-147.187 -52.925)"/><path class="b" d="M273.478,36.741h-38.43l10.509-14.274h15.707l-6.024,8.185h7.011l6.026-8.185h15.705Z" transform="translate(-164.085 -15.684)"/><path class="b" d="M307.775,75.821l-5.959,8.1H286.11s5.953-8.1,5.958-8.1Z" transform="translate(-199.731 -52.93)"/><path class="b" d="M0,86.395H23.147l-1.264,1.72H0Z" transform="translate(0 -60.312)"/><path class="b" d="M0,75.821H25.5l-1.267,1.718H0Z" transform="translate(0 -52.93)"/><path class="b" d="M0,96.975H20.8l-1.258,1.709H0Z" transform="translate(0 -67.698)"/><path class="b" d="M513.614,88.116H490.557l1.265-1.72h21.792Z" transform="translate(-342.454 -60.312)"/><path class="b" d="M508.194,98.684l-25.4,0,1.258-1.712h24.143Z" transform="translate(-337.034 -67.698)"/><path class="b" d="M499.6,75.821h19.444v1.718l-20.707,0Z" transform="translate(-347.888 -52.93)"/><path class="b" d="M406.407,22.467,395.9,36.741H379.256s10.51-14.274,10.515-14.274Z" transform="translate(-264.756 -15.684)"/><path class="b" d="M369.075,75.821s-1.148,1.569-1.706,2.323c-1.973,2.666-.229,5.773,6.21,5.773H398.8l5.958-8.1Z" transform="translate(-255.922 -52.93)"/><path class="a" d="M0,145.451H171.16v.856H0Z" transform="translate(0 -101.538)"/><path class="a" d="M0,158.676H171.16v.856H0Z" transform="translate(0 -110.771)"/><path class="a" d="M0,171.9H171.16v.856H0Z" transform="translate(0 -120.001)"/><path class="b" d="M190.371,154.293h5.151l.822-1.114h-3.833l2.15-2.913h3.491l.822-1.115h-3.491l1.906-2.583h3.834l.822-1.115h-5.151Z" transform="translate(-132.897 -101.54)"/><path class="b" d="M211.31,154.293h1.581l5.388-3.748-.053,3.748h1.66l.012-4.622,6.208-4.217h-1.5l-4.942,3.394.054-3.394h-1.581l-.048,4.243Z" transform="translate(-147.514 -101.54)"/><path class="c" d="M250.7,146.567h1.12c.817,0,1.73.405.907,1.52a3.88,3.88,0,0,1-2.994,1.558h-1.3l2.271-3.077Zm-7.018,7.725H245l2.607-3.533h1.291a6.5,6.5,0,0,0,5.216-2.66c1.486-2.014.386-2.647-1.5-2.647H250.2l-6.523,8.84Z" transform="translate(-170.11 -101.539)"/><path class="c" d="M268.8,154.292h1.318l2.9-3.926h.79c.7,0,1.133,0,.906.861l-.852,3.065h1.5l.859-3.521c.112-.544.055-.734-.242-.886l.019-.025a5.459,5.459,0,0,0,3.383-2.014c1.561-2.115.014-2.394-1.8-2.394h-2.253l-6.524,8.84Zm7.018-7.725h1.264c1.212,0,1.471.507.882,1.3a3.723,3.723,0,0,1-3.008,1.38h-1.12l1.981-2.685Z" transform="translate(-187.651 -101.539)"/><path class="b" d="M295.055,154.293h5.151l.822-1.114h-3.833l2.149-2.913h3.491l.822-1.115h-3.491l1.907-2.583h3.833l.823-1.115h-5.151Z" transform="translate(-205.976 -101.54)"/><path class="b" d="M329.186,145.266a4.41,4.41,0,0,0-1.729-.317,6.063,6.063,0,0,0-4.727,2.407c-2.028,2.748,2.326,2.2.868,4.179a3.868,3.868,0,0,1-2.87,1.444,3.424,3.424,0,0,1-1.593-.431l-1,1.178a4.079,4.079,0,0,0,1.613.367,6.519,6.519,0,0,0,5.3-2.635c2.15-2.912-2.092-2.52-.84-4.217a3.057,3.057,0,0,1,2.476-1.178,2.593,2.593,0,0,1,1.455.367l1.044-1.165Z" transform="translate(-222.088 -101.188)"/><path class="b" d="M351,145.266a4.412,4.412,0,0,0-1.73-.317,6.062,6.062,0,0,0-4.726,2.407c-2.028,2.748,2.326,2.2.868,4.179a3.868,3.868,0,0,1-2.87,1.444,3.422,3.422,0,0,1-1.592-.431l-1,1.178a4.08,4.08,0,0,0,1.613.367,6.519,6.519,0,0,0,5.3-2.635c2.15-2.912-2.092-2.52-.84-4.217a3.057,3.057,0,0,1,2.476-1.178,2.592,2.592,0,0,1,1.455.367L351,145.266Z" transform="translate(-237.319 -101.188)"/></svg>