<svg xmlns="http://www.w3.org/2000/svg" width="7.316" height="12.935" viewBox="0 0 7.316 12.935"><defs><style>.a{fill:#6D6D6D;}</style></defs><path class="a" d="M10.258,8.677C8.627,8.253,8.1,7.815,8.1,7.132c0-.783.726-1.329,1.94-1.329,1.279,0,1.753.611,1.8,1.509h1.588A2.865,2.865,0,0,0,11.12,4.574V3H8.965V4.552A2.8,2.8,0,0,0,6.449,7.146c0,1.66,1.373,2.486,3.378,2.968,1.8.431,2.156,1.064,2.156,1.732,0,.5-.352,1.286-1.94,1.286-1.48,0-2.062-.661-2.142-1.509H6.32a3.011,3.011,0,0,0,2.645,2.752v1.559H11.12V14.39c1.4-.266,2.515-1.078,2.515-2.551C13.636,9.8,11.889,9.1,10.258,8.677Z" transform="translate(-6.32 -3)"/></svg>