<svg xmlns="http://www.w3.org/2000/svg" width="15.03" height="18.29" viewBox="0 0 15.03 18.29"><defs><style>.a{fill:#777;}</style></defs><g transform="translate(-45.624 -0.001)"><g transform="translate(46.174 13.825)"><g transform="translate(0)"><path class="a" d="M66.178,387.867l-.758.455A2.535,2.535,0,0,1,62,387.554a2.578,2.578,0,0,1-.28-.564,2.667,2.667,0,1,0,4.636,1.8A2.6,2.6,0,0,0,66.178,387.867Z" transform="translate(-61.024 -386.99)"/></g></g><g transform="translate(53.033 0.001)"><g transform="translate(0 0)"><path class="a" d="M260.427,2.317,255.092.031a.382.382,0,0,0-.447.112l-1.524,1.905a.383.383,0,0,0-.075.32.379.379,0,0,0,.2.259L259,5.505a1.134,1.134,0,0,0,.511.122,1.156,1.156,0,0,0,.8-.322,1.133,1.133,0,0,0,.348-.821V2.668A.382.382,0,0,0,260.427,2.317Z" transform="translate(-253.038 -0.001)"/></g></g><g transform="translate(48.46 15.372)"><g transform="translate(0)"><path class="a" d="M125.025,430.318v1.013a.381.381,0,0,0,.762,0v-.87A2.517,2.517,0,0,1,125.025,430.318Z" transform="translate(-125.025 -430.318)"/></g></g><g transform="translate(45.624 2.983)"><g transform="translate(0)"><path class="a" d="M58.658,86.685l-6.408-3.2-3.806,1.427a1.912,1.912,0,0,0-.966.8L45.9,88.349a1.9,1.9,0,0,0-.07,1.832l1.123,2.245a2.309,2.309,0,0,1,.966-1.1c.567-.325,1-.585,1.33-.8-.017-.01-.029-.027-.046-.036a2.583,2.583,0,0,0-.463-1.052,5.364,5.364,0,0,0,1.758-1.164,4.461,4.461,0,0,0,1.381.525,7.12,7.12,0,0,0-1.063,1.687c-.139.063-.348.171-.668.357-.4.282-.985.642-1.849,1.139a1.652,1.652,0,0,0-.769,1.122,1.782,1.782,0,0,0-.035.322c0,.034,0,.068,0,.1a1.679,1.679,0,0,0,.021.223c.006.037.013.072.021.109a1.81,1.81,0,0,0,.065.216c.011.031.021.062.034.094a1.748,1.748,0,0,0,.154.288,1.715,1.715,0,0,0,.424.431c.03.022.06.043.091.063a1.858,1.858,0,0,0,1.157.272c.05-.005.1-.01.149-.02a1.711,1.711,0,0,0,.194-.047A1.762,1.762,0,0,0,50.177,95L52.8,93.433a6.893,6.893,0,0,0,3.99-3.206,29,29,0,0,0,1.875-3.538S58.66,86.685,58.658,86.685Z" transform="translate(-45.624 -83.481)"/></g></g></g></svg>