<svg xmlns="http://www.w3.org/2000/svg" width="57.819" height="44.28" viewBox="0 0 57.819 44.28"><defs><style>.a{fill:#558ed4;stroke:#558ed4;}</style></defs><g transform="translate(0.5 -60.5)"><g transform="translate(0 61)"><path class="a" d="M51.825,61H4.994A5,5,0,0,0,0,65.994V99.286a5,5,0,0,0,4.994,4.994H51.825a5,5,0,0,0,4.994-4.994V65.994A5,5,0,0,0,51.825,61Zm-.69,3.329-22.62,22.62L5.7,64.329ZM3.329,98.6V66.667l16.033,15.9Zm2.354,2.354L21.727,84.907l5.622,5.573a1.665,1.665,0,0,0,2.349-.005l5.481-5.481,15.957,15.957ZM53.49,98.6,37.533,82.64,53.49,66.683Z" transform="translate(0 -61)"/></g></g></svg>