<svg xmlns="http://www.w3.org/2000/svg" width="36" height="36" viewBox="0 0 36 36"><defs><style>.a{fill:#3a5998;}.b{fill:rgba(255,255,255,0.6);}</style></defs><rect class="a" width="36" height="36" rx="4"/><path class="b" d="M15.39,33.649V45.741a1.649,1.649,0,0,1-1.649,1.649h-2.93V41.3h2.082l.3-2.322H10.811V37.5c0-.673.186-1.13,1.151-1.13h1.23V34.291A16.536,16.536,0,0,0,11.4,34.2,2.8,2.8,0,0,0,8.41,37.27v1.714H6.321v2.322H8.413V47.39H1.649A1.649,1.649,0,0,1,0,45.741V33.649A1.649,1.649,0,0,1,1.649,32H13.741A1.649,1.649,0,0,1,15.39,33.649Z" transform="translate(10 -21.839)"/></svg>