<svg xmlns="http://www.w3.org/2000/svg" width="35.851" height="35.851" viewBox="0 0 35.851 35.851"><defs><style>.a{fill:#313131;}</style></defs><path class="a" d="M3.585,85.333H0v25.1a3.584,3.584,0,0,0,3.585,3.585h25.1v-3.585H3.585Z" transform="translate(0 -78.163)"/><path class="a" d="M110.428,0H88.918a3.584,3.584,0,0,0-3.585,3.585V25.1a3.584,3.584,0,0,0,3.585,3.585h21.51a3.584,3.584,0,0,0,3.585-3.585V3.585A3.584,3.584,0,0,0,110.428,0ZM88.918,25.1l5.378-7.17,3.639,4.858,5.324-6.65,7.17,8.963Z" transform="translate(-78.163)"/></svg>