<svg xmlns="http://www.w3.org/2000/svg" width="21" height="21.004" viewBox="0 0 21 21.004"><defs><style>.a{fill:#afafaf;}</style></defs><path class="a" d="M14.25,14.437C13.636,10.655,12.188,8,10.5,8s-3.134,2.655-3.748,6.437ZM6.437,18.5a26.543,26.543,0,0,0,.14,2.71h7.847a26.542,26.542,0,0,0,.14-2.71,26.542,26.542,0,0,0-.14-2.71H6.577A26.543,26.543,0,0,0,6.437,18.5Zm13.75-4.065a10.524,10.524,0,0,0-6.691-6,14.293,14.293,0,0,1,2.117,6ZM7.5,8.44a10.517,10.517,0,0,0-6.687,6H5.391a14.235,14.235,0,0,1,2.113-6ZM20.64,15.792H15.783c.089.889.14,1.8.14,2.71s-.051,1.821-.14,2.71h4.853A10.411,10.411,0,0,0,21,18.5a10.593,10.593,0,0,0-.36-2.71ZM5.082,18.5c0-.91.051-1.821.14-2.71H.364a10.267,10.267,0,0,0,0,5.42H5.217C5.132,20.323,5.082,19.413,5.082,18.5Zm1.673,4.065C7.368,26.349,8.817,29,10.5,29s3.134-2.655,3.748-6.437Zm6.746,6a10.534,10.534,0,0,0,6.691-6H15.618A14.293,14.293,0,0,1,13.5,28.564Zm-12.683-6a10.524,10.524,0,0,0,6.691,6,14.293,14.293,0,0,1-2.117-6H.817Z" transform="translate(0 -8)"/></svg>