<svg xmlns="http://www.w3.org/2000/svg" width="36" height="36" viewBox="0 0 36 36"><defs><style>.a{fill:#dd4b39;}.b{fill:rgba(255,255,255,0.6);}</style></defs><rect class="a" width="36" height="36" rx="4"/><path class="b" d="M8.44,8a8.44,8.44,0,1,0,8.44,8.44A8.443,8.443,0,0,0,8.44,8ZM6.034,20.66a4.22,4.22,0,1,1,0-8.44,4.076,4.076,0,0,1,2.825,1.1L7.715,14.429a2.394,2.394,0,0,0-1.681-.65,2.658,2.658,0,0,0,0,5.316A2.288,2.288,0,0,0,8.42,17.281H6.034v-1.45h3.978a3.716,3.716,0,0,1,.065.7A3.893,3.893,0,0,1,6.034,20.66Zm7.834-3.614v1.208H12.66V17.046H11.452V15.838H12.66V14.629h1.208v1.208h1.2v1.208Z" transform="translate(10 1.464)"/></svg>