<svg xmlns="http://www.w3.org/2000/svg" width="17.611" height="17.591" viewBox="0 0 17.611 17.591"><defs><style>.a{fill:none;}.b,.c{fill:#777;}.b{opacity:0.32;}</style></defs><g transform="translate(-1813 -643)"><g transform="translate(1813 643)"><path class="a" d="M0,0H17.556V17.556H0Z"/><path class="b" d="M9.9,2V19.556A8.827,8.827,0,0,1,9.9,2Zm0,9.551v8a8.419,8.419,0,0,0,7.281-2.7C14.756,14.818,9.9,11.551,9.9,11.551Z" transform="translate(-2 -2)"/><path class="c" d="M14.133,2v8.45s4.456,3.1,6.605,4.871a8.282,8.282,0,0,0,1.269-5.429A8.817,8.817,0,0,0,14.133,2Z" transform="translate(-4.451 -2)"/></g></g></svg>