<svg xmlns="http://www.w3.org/2000/svg" width="13.258" height="17.678" viewBox="0 0 13.258 17.678"><defs><style>.a{fill:#777;}</style></defs><path class="a" d="M12.43,0H.829A.829.829,0,0,0,0,.829v.552a.829.829,0,0,0,.829.829A6.852,6.852,0,0,0,5,8.839,6.852,6.852,0,0,0,.829,15.468.829.829,0,0,0,0,16.3v.552a.829.829,0,0,0,.829.829h11.6a.829.829,0,0,0,.829-.829V16.3a.829.829,0,0,0-.829-.829A6.852,6.852,0,0,0,8.257,8.839,6.852,6.852,0,0,0,12.43,2.21a.829.829,0,0,0,.829-.829V.829A.829.829,0,0,0,12.43,0ZM10.22,15.468H3.038c0-2.674,1.6-4.972,3.591-4.972S10.22,12.793,10.22,15.468Z"/></svg>