<svg xmlns="http://www.w3.org/2000/svg" width="36" height="36" viewBox="0 0 36 36"><defs><style>.a{fill:#49769c;}.b{fill:rgba(255,255,255,0.6);}</style></defs><rect class="a" width="36" height="36" rx="4"/><path class="b" d="M8.044,35.779A4.161,4.161,0,1,0,12.2,39.94,4.155,4.155,0,0,0,8.044,35.779Zm0,6.866a2.705,2.705,0,1,1,2.705-2.705A2.71,2.71,0,0,1,8.044,42.645Zm5.3-7.037a.971.971,0,1,1-.971-.971A.968.968,0,0,1,13.346,35.609Zm2.756.985a4.8,4.8,0,0,0-1.311-3.4,4.835,4.835,0,0,0-3.4-1.311c-1.34-.076-5.356-.076-6.7,0a4.828,4.828,0,0,0-3.4,1.307,4.819,4.819,0,0,0-1.311,3.4c-.076,1.34-.076,5.356,0,6.7a4.8,4.8,0,0,0,1.311,3.4A4.841,4.841,0,0,0,4.694,48c1.34.076,5.356.076,6.7,0a4.8,4.8,0,0,0,3.4-1.311,4.835,4.835,0,0,0,1.311-3.4C16.178,41.946,16.178,37.934,16.1,36.594Zm-1.731,8.13a2.739,2.739,0,0,1-1.543,1.543c-1.068.424-3.6.326-4.784.326s-3.719.094-4.784-.326a2.739,2.739,0,0,1-1.543-1.543c-.424-1.068-.326-3.6-.326-4.784s-.094-3.719.326-4.784A2.739,2.739,0,0,1,3.26,33.613c1.068-.424,3.6-.326,4.784-.326s3.719-.094,4.784.326a2.739,2.739,0,0,1,1.543,1.543c.424,1.068.326,3.6.326,4.784S14.794,43.659,14.37,44.724Z" transform="translate(10.587 -21.825)"/></svg>