<svg xmlns="http://www.w3.org/2000/svg" width="36" height="36" viewBox="0 0 36 36"><defs><style>.a{fill:#1f88be;}.b{fill:rgba(255,255,255,0.6);}</style></defs><rect class="a" width="36" height="36" rx="4"/><path class="b" d="M14.11,32H1.082A1.09,1.09,0,0,0,0,33.1v13a1.09,1.09,0,0,0,1.082,1.1H14.11A1.093,1.093,0,0,0,15.2,46.1v-13A1.093,1.093,0,0,0,14.11,32ZM4.593,45.025H2.34V37.773H4.6v7.252ZM3.467,36.783a1.306,1.306,0,1,1,1.306-1.306A1.306,1.306,0,0,1,3.467,36.783Zm9.569,8.242H10.783V41.5c0-.841-.017-1.923-1.17-1.923-1.174,0-1.353.916-1.353,1.862v3.589H6.007V37.773H8.168v.99H8.2a2.372,2.372,0,0,1,2.134-1.17c2.279,0,2.7,1.5,2.7,3.456Z" transform="translate(10 -22)"/></svg>