<svg xmlns="http://www.w3.org/2000/svg" width="168" height="41.023" viewBox="0 0 168 41.023"><defs><style>.a{fill:#253b80;}.b{fill:#179bd7;}.c{fill:#222d65;}</style></defs><path class="a" d="M50,6.749h-9.3a1.291,1.291,0,0,0-1.276,1.09l-3.76,23.839a.775.775,0,0,0,.767.894h4.438a1.291,1.291,0,0,0,1.276-1.092l1.014-6.43A1.291,1.291,0,0,1,44.44,23.96h2.943c6.124,0,9.658-2.963,10.581-8.836.416-2.569.018-4.588-1.185-6C55.458,7.57,53.114,6.749,50,6.749Zm1.073,8.707c-.508,3.336-3.057,3.336-5.522,3.336h-1.4l.984-6.23a.775.775,0,0,1,.765-.654h.643c1.679,0,3.263,0,4.081.957a3.1,3.1,0,0,1,.451,2.591Zm26.717-.107H73.341a.775.775,0,0,0-.765.654l-.2,1.245-.311-.451c-.964-1.4-3.113-1.866-5.258-1.866a10.238,10.238,0,0,0-9.94,8.953,8.4,8.4,0,0,0,1.658,6.839,6.966,6.966,0,0,0,5.607,2.265A8.518,8.518,0,0,0,70.3,30.438l-.2,1.237a.775.775,0,0,0,.764.9h4.01a1.291,1.291,0,0,0,1.276-1.092l2.406-15.237a.772.772,0,0,0-.763-.894Zm-6.206,8.665a4.962,4.962,0,0,1-5.023,4.251,3.449,3.449,0,0,1-3.688-4.328,4.983,4.983,0,0,1,4.989-4.285,3.756,3.756,0,0,1,2.969,1.213,3.853,3.853,0,0,1,.753,3.15ZM101.5,15.348H97.029a1.3,1.3,0,0,0-1.07.567L89.789,25,87.174,16.27a1.3,1.3,0,0,0-1.24-.922h-4.4a.775.775,0,0,0-.735,1.025L85.73,30.834,81.1,37.374a.775.775,0,0,0,.632,1.223H86.2a1.29,1.29,0,0,0,1.062-.555l14.88-21.478a.775.775,0,0,0-.636-1.217Z" transform="translate(12.815 2.425)"/><path class="b" d="M98.784,6.749h-9.3a1.291,1.291,0,0,0-1.275,1.09l-3.76,23.839a.773.773,0,0,0,.764.894h4.771a.9.9,0,0,0,.892-.764l1.067-6.757A1.291,1.291,0,0,1,93.22,23.96h2.942c6.125,0,9.658-2.963,10.583-8.836.417-2.569.016-4.588-1.187-6-1.32-1.552-3.662-2.373-6.774-2.373Zm1.073,8.707c-.507,3.336-3.056,3.336-5.522,3.336h-1.4l.986-6.23a.772.772,0,0,1,.764-.654h.643c1.677,0,3.263,0,4.081.957A3.1,3.1,0,0,1,99.856,15.456Zm26.716-.107h-4.449a.771.771,0,0,0-.764.654l-.2,1.245-.313-.451c-.964-1.4-3.112-1.866-5.257-1.866a10.236,10.236,0,0,0-9.938,8.953,8.408,8.408,0,0,0,1.657,6.839,6.969,6.969,0,0,0,5.607,2.265,8.518,8.518,0,0,0,6.162-2.549l-.2,1.237a.775.775,0,0,0,.767.9h4.009a1.291,1.291,0,0,0,1.275-1.092l2.407-15.237a.776.776,0,0,0-.768-.894Zm-6.206,8.665a4.96,4.96,0,0,1-5.023,4.251,3.449,3.449,0,0,1-3.688-4.328,4.985,4.985,0,0,1,4.989-4.285,3.756,3.756,0,0,1,2.969,1.213A3.834,3.834,0,0,1,120.367,24.013ZM131.821,7.4l-3.816,24.276a.773.773,0,0,0,.764.894h3.836a1.29,1.29,0,0,0,1.276-1.092l3.763-23.838a.775.775,0,0,0-.764-.9h-4.3a.776.776,0,0,0-.764.655Z" transform="translate(30.346 2.425)"/><path class="a" d="M9.5,39.263l.711-4.516-1.584-.037H1.061L6.316,1.388a.43.43,0,0,1,.427-.364H19.494c4.233,0,7.154.881,8.68,2.62a5.972,5.972,0,0,1,1.391,2.606,9.408,9.408,0,0,1,.01,3.594l-.016.1v.919l.715.405a5.016,5.016,0,0,1,1.448,1.1,5.14,5.14,0,0,1,1.175,2.634,11.144,11.144,0,0,1-.167,3.823,13.461,13.461,0,0,1-1.566,4.327,8.9,8.9,0,0,1-2.481,2.719,10.065,10.065,0,0,1-3.341,1.508,16.663,16.663,0,0,1-4.176.483h-.992a2.985,2.985,0,0,0-2.951,2.519l-.075.406-1.256,7.959-.057.292a.251.251,0,0,1-.079.17.211.211,0,0,1-.13.048Z" transform="translate(0.381 0.368)"/><path class="b" d="M29.107,7.667q-.057.365-.131.748c-1.682,8.633-7.434,11.616-14.782,11.616H10.454a1.817,1.817,0,0,0-1.8,1.539L6.743,33.717,6.2,37.16a.957.957,0,0,0,.945,1.107H13.78a1.6,1.6,0,0,0,1.577-1.346l.065-.337,1.249-7.928.08-.435a1.6,1.6,0,0,1,1.577-1.349h.992c6.429,0,11.461-2.61,12.932-10.163.614-3.155.3-5.79-1.329-7.642a6.344,6.344,0,0,0-1.816-1.4Z" transform="translate(2.224 2.755)"/><path class="c" d="M26.7,7.311a13.263,13.263,0,0,0-1.635-.363,20.777,20.777,0,0,0-3.3-.241H11.768a1.593,1.593,0,0,0-1.576,1.349L8.066,21.522,8,21.914a1.816,1.816,0,0,1,1.8-1.539h3.741c7.347,0,13.1-2.984,14.782-11.616.05-.256.092-.5.131-.748a8.964,8.964,0,0,0-1.382-.583q-.187-.062-.377-.118Z" transform="translate(2.877 2.41)"/><path class="a" d="M13.069,10.466a1.589,1.589,0,0,1,1.576-1.347h9.994a20.777,20.777,0,0,1,3.3.241,13.264,13.264,0,0,1,2.013.48,9.1,9.1,0,0,1,1.382.583c.5-3.19,0-5.363-1.729-7.33C27.7.927,24.269,0,19.877,0H7.126a1.822,1.822,0,0,0-1.8,1.54L.014,35.205a1.1,1.1,0,0,0,1.081,1.267H8.966l1.977-12.54,2.126-13.466Z" transform="translate(0 0)"/></svg>