<svg xmlns="http://www.w3.org/2000/svg" width="6.562" height="10.288" viewBox="0 0 6.562 10.288"><g transform="translate(-72.806)"><path d="M79.3,2.331a.227.227,0,0,0-.168-.066H77.884a2.529,2.529,0,0,0-.468-1.052h1.7a.225.225,0,0,0,.234-.234V.234A.225.225,0,0,0,79.119,0H73.04a.225.225,0,0,0-.234.234v.972a.237.237,0,0,0,.234.234H74.1q1.542,0,1.958.826H73.04a.225.225,0,0,0-.234.234v.745a.225.225,0,0,0,.234.234h3.12a1.428,1.428,0,0,1-.749.913,3.3,3.3,0,0,1-1.553.314H73.04a.237.237,0,0,0-.234.234v.928a.218.218,0,0,0,.066.161q1.4,1.491,3.639,4.172a.215.215,0,0,0,.183.088h1.425a.212.212,0,0,0,.212-.132.2.2,0,0,0-.029-.248q-2.133-2.616-3.354-3.917a3.706,3.706,0,0,0,2.017-.8,2.732,2.732,0,0,0,.943-1.71h1.228a.225.225,0,0,0,.234-.234V2.5A.228.228,0,0,0,79.3,2.331Z"/></g></svg>