<svg xmlns="http://www.w3.org/2000/svg" width="17.59" height="17.591" viewBox="0 0 17.59 17.591"><defs><style>.a{fill:#777;}</style></defs><path class="a" d="M9.228.181a.607.607,0,0,0-.858,0L.181,8.37a.607.607,0,0,0,0,.858L8.37,17.416a.607.607,0,0,0,.858,0l8.188-8.188a.607.607,0,0,0,0-.858ZM8.949,10.414,6.8,13.286a.152.152,0,0,1-.243,0L4.4,10.414a.3.3,0,0,1,.3-.482l1.074.179V4.248a.3.3,0,0,1,.3-.3H7.293a.3.3,0,0,1,.3.3V10.11L8.67,9.931a.3.3,0,0,1,.279.482ZM12.891,7.36,11.83,7.181v5.862a.3.3,0,0,1-.3.3H10.314a.3.3,0,0,1-.3-.3V7.181L8.937,7.36a.3.3,0,0,1-.3-.482l2.153-2.872a.152.152,0,0,1,.243,0l2.153,2.872a.3.3,0,0,1-.279.482Z" transform="translate(-0.004 -0.003)"/></svg>