<svg xmlns="http://www.w3.org/2000/svg" width="17.591" height="17.591" viewBox="0 0 17.591 17.591"><defs><style>.a{fill:#777;}</style></defs><path class="a" d="M8.062,13.55a.551.551,0,0,0-.55-.55H4.764v2.2a.733.733,0,0,1-1.466,0V13H.55a.551.551,0,0,0-.55.55v6.963a.551.551,0,0,0,.55.55H7.513a.551.551,0,0,0,.55-.55Z" transform="translate(0 -3.472)"/><path class="a" d="M21.062,13.55a.551.551,0,0,0-.55-.55H17.764v2.2a.733.733,0,0,1-1.466,0V13H13.55a.551.551,0,0,0-.55.55v6.963a.551.551,0,0,0,.55.55h6.963a.551.551,0,0,0,.55-.55Z" transform="translate(-3.472 -3.472)"/><path class="a" d="M14.562.55a.552.552,0,0,0-.55-.55H11.264V2.2A.733.733,0,1,1,9.8,2.2V0H7.05A.551.551,0,0,0,6.5.55V7.513a.551.551,0,0,0,.55.55h6.963a.551.551,0,0,0,.55-.55Z" transform="translate(-1.736)"/></svg>