<svg xmlns="http://www.w3.org/2000/svg" width="36" height="36" viewBox="0 0 36 36"><defs><style>.a{fill:#55acee;}.b{fill:rgba(255,255,255,0.6);}</style></defs><rect class="a" width="36" height="36" rx="4"/><path class="b" d="M15.554,51.591c.011.154.011.308.011.462A10.04,10.04,0,0,1,5.456,62.162,10.04,10.04,0,0,1,0,60.567a7.351,7.351,0,0,0,.858.044,7.116,7.116,0,0,0,4.411-1.518,3.559,3.559,0,0,1-3.322-2.464,4.481,4.481,0,0,0,.671.055,3.758,3.758,0,0,0,.935-.121A3.553,3.553,0,0,1,.7,53.076v-.044a3.578,3.578,0,0,0,1.606.451,3.558,3.558,0,0,1-1.1-4.752,10.1,10.1,0,0,0,7.326,3.718,4.011,4.011,0,0,1-.088-.814A3.556,3.556,0,0,1,14.6,49.2a7,7,0,0,0,2.255-.858A3.543,3.543,0,0,1,15.29,50.3a7.123,7.123,0,0,0,2.046-.55A7.638,7.638,0,0,1,15.554,51.591Z" transform="translate(8.901 -37.106)"/></svg>