<svg xmlns="http://www.w3.org/2000/svg" width="36" height="36" viewBox="0 0 36 36"><defs><style>.a{fill:red;}.b{fill:#fff;}</style></defs><rect class="a" width="36" height="36" rx="4"/><path class="b" d="M32.3,65.952a2.229,2.229,0,0,0-1.568-1.579A52.678,52.678,0,0,0,23.8,64a52.679,52.679,0,0,0-6.931.373A2.229,2.229,0,0,0,15.3,65.952a25.1,25.1,0,0,0,0,8.6A2.2,2.2,0,0,0,16.872,76.1a52.678,52.678,0,0,0,6.931.373,52.678,52.678,0,0,0,6.931-.373A2.2,2.2,0,0,0,32.3,74.547a25.1,25.1,0,0,0,0-8.6ZM21.989,72.887V67.612l4.637,2.638Z" transform="translate(-5.94 -52)"/></svg>